<svg height="512" viewBox="0 0 512 512" width="512" xmlns="http://www.w3.org/2000/svg"><g><g><path d="m384 288h-48l-25-72h-111l-24 72h-48l-16-16v-184l16-16h256l16 16v184z" fill="#acabb1"/><g fill="#d8d7da"><circle cx="320" cy="160" r="8"/><circle cx="368" cy="160" r="8"/><circle cx="344" cy="136" r="8"/><circle cx="344" cy="184" r="8"/></g><path d="m288 104h-64l-8-32h80z" fill="#83d8f4"/><path d="m16 320h480v112h-480z" fill="#57565c"/><path d="m304 352h-96l-16-32h128z" fill="#83d8f4"/><path d="m32 432h80v24h-80z" fill="#2d2d30"/><path d="m400 432h80v24h-80z" fill="#2d2d30"/><path d="m128 376h256v24h-256z" fill="#2d2d30"/><path d="m48 352h32v48h-32z" fill="#cca400"/></g><circle cx="320" cy="160" r="8"/><circle cx="368" cy="160" r="8"/><circle cx="344" cy="136" r="8"/><circle cx="344" cy="184" r="8"/><path d="m144 168h16v16a8 8 0 0 0 16 0v-16h16a8 8 0 0 0 0-16h-16v-16a8 8 0 0 0 -16 0v16h-16a8 8 0 0 0 0 16z"/><path d="m232 192h8a8 8 0 0 0 0-16h-8a8 8 0 0 0 0 16z"/><path d="m272 192h8a8 8 0 0 0 0-16h-8a8 8 0 0 0 0 16z"/><path d="m405.66 82.34-16-16a8.008 8.008 0 0 0 -5.66-2.34h-256a8.008 8.008 0 0 0 -5.66 2.34l-16 16a8.008 8.008 0 0 0 -2.34 5.66v184a8.008 8.008 0 0 0 2.34 5.66l16 16a8.008 8.008 0 0 0 5.66 2.34h48a8 8 0 0 0 7.59-5.47l22.18-66.53h99.54l23.13 66.62a8 8 0 0 0 7.56 5.38h48a8.008 8.008 0 0 0 5.66-2.34l16-16a8.008 8.008 0 0 0 2.34-5.66v-184a8.008 8.008 0 0 0 -2.34-5.66zm-119.91-2.34-4 16h-51.5l-4-16zm106.25 188.69-11.31 11.31h-39l-23.13-66.62a8 8 0 0 0 -7.56-5.38h-111a8 8 0 0 0 -7.59 5.47l-22.18 66.53h-38.92l-11.31-11.31v-177.38l11.31-11.31h78.44l6.49 25.94a8 8 0 0 0 7.76 6.06h64a8 8 0 0 0 7.76-6.06l6.49-25.94h78.44l11.31 11.31z"/><path d="m496 312h-480a8 8 0 0 0 -8 8v112a8 8 0 0 0 8 8h8v16a8 8 0 0 0 8 8h80a8 8 0 0 0 8-8v-16h272v16a8 8 0 0 0 8 8h80a8 8 0 0 0 8-8v-16h8a8 8 0 0 0 8-8v-112a8 8 0 0 0 -8-8zm-188.94 16-8 16h-86.12l-8-16zm-203.06 120h-64v-8h64zm368 0h-64v-8h64zm16-24h-464v-96h163.06l13.78 27.58a8.011 8.011 0 0 0 7.16 4.42h96a8.011 8.011 0 0 0 7.16-4.42l13.78-27.58h163.06z"/><path d="m128 368a8 8 0 0 0 -8 8v24a8 8 0 0 0 8 8h256a8 8 0 0 0 8-8v-24a8 8 0 0 0 -8-8zm248 24h-240v-8h240z"/><path d="m80 344h-32a8 8 0 0 0 -8 8v48a8 8 0 0 0 8 8h32a8 8 0 0 0 8-8v-48a8 8 0 0 0 -8-8zm-8 16v8h-16v-8zm-16 32v-8h16v8z"/><path d="m424 360h40a8 8 0 0 0 0-16h-40a8 8 0 0 0 0 16z"/><path d="m464 368h-16a8 8 0 0 0 0 16h16a8 8 0 0 0 0-16z"/></g></svg>