<svg height="512" viewBox="0 0 512 512" width="512" xmlns="http://www.w3.org/2000/svg"><g><g><rect fill="#57565c" height="400" rx="20" width="480" x="16" y="96"/><rect fill="#898890" height="304" rx="12" width="112" x="64" y="160"/><path d="m100 128h40a12 12 0 0 1 12 12v20a0 0 0 0 1 0 0h-64a0 0 0 0 1 0 0v-20a12 12 0 0 1 12-12z" fill="#d8d7da"/><path d="m64 248h112v96h-112z" fill="#cca400"/><rect fill="#898890" height="304" rx="12" width="112" x="200" y="160"/><path d="m236 128h40a12 12 0 0 1 12 12v20a0 0 0 0 1 0 0h-64a0 0 0 0 1 0 0v-20a12 12 0 0 1 12-12z" fill="#d8d7da"/><path d="m200 248h112v96h-112z" fill="#cca400"/><rect fill="#898890" height="304" rx="12" width="112" x="336" y="160"/><path d="m372 128h40a12 12 0 0 1 12 12v20a0 0 0 0 1 0 0h-64a0 0 0 0 1 0 0v-20a12 12 0 0 1 12-12z" fill="#d8d7da"/><path d="m336 248h112v96h-112z" fill="#cca400"/><g fill="#d8d7da"><circle cx="472" cy="120" r="8"/><circle cx="40" cy="120" r="8"/><circle cx="472" cy="472" r="8"/><circle cx="40" cy="472" r="8"/></g><path d="m232 64h48v32h-48z" fill="#cca400"/></g><g><path d="m476 88h-188v-24a8 8 0 0 0 -8-8h-16v-40a8 8 0 0 0 -16 0v40h-16a8 8 0 0 0 -8 8v24h-188a28.031 28.031 0 0 0 -28 28v360a28.031 28.031 0 0 0 28 28h440a28.031 28.031 0 0 0 28-28v-360a28.031 28.031 0 0 0 -28-28zm-236-16h32v16h-32zm248 404a12.01 12.01 0 0 1 -12 12h-440a12.01 12.01 0 0 1 -12-12v-360a12.01 12.01 0 0 1 12-12h440a12.01 12.01 0 0 1 12 12z"/><path d="m164 152h-4v-12a20.02 20.02 0 0 0 -20-20h-40a20.02 20.02 0 0 0 -20 20v12h-4a20.02 20.02 0 0 0 -20 20v280a20.02 20.02 0 0 0 20 20h88a20.02 20.02 0 0 0 20-20v-280a20.02 20.02 0 0 0 -20-20zm-68-12a4 4 0 0 1 4-4h40a4 4 0 0 1 4 4v12h-48zm72 312a4 4 0 0 1 -4 4h-88a4 4 0 0 1 -4-4v-100h96zm0-116h-96v-80h96zm0-96h-96v-68a4 4 0 0 1 4-4h88a4 4 0 0 1 4 4z"/><path d="m436 152h-4v-12a20.02 20.02 0 0 0 -20-20h-40a20.02 20.02 0 0 0 -20 20v12h-4a20.02 20.02 0 0 0 -20 20v280a20.02 20.02 0 0 0 20 20h88a20.02 20.02 0 0 0 20-20v-280a20.02 20.02 0 0 0 -20-20zm-68-12a4 4 0 0 1 4-4h40a4 4 0 0 1 4 4v12h-48zm72 312a4 4 0 0 1 -4 4h-88a4 4 0 0 1 -4-4v-100h96zm0-116h-96v-80h96zm0-96h-96v-68a4 4 0 0 1 4-4h88a4 4 0 0 1 4 4z"/><path d="m300 152h-4v-12a20.02 20.02 0 0 0 -20-20h-40a20.02 20.02 0 0 0 -20 20v12h-4a20.02 20.02 0 0 0 -20 20v280a20.02 20.02 0 0 0 20 20h88a20.02 20.02 0 0 0 20-20v-280a20.02 20.02 0 0 0 -20-20zm-68-12a4 4 0 0 1 4-4h40a4 4 0 0 1 4 4v12h-48zm72 312a4 4 0 0 1 -4 4h-88a4 4 0 0 1 -4-4v-100h96zm0-116h-96v-80h96zm0-96h-96v-68a4 4 0 0 1 4-4h88a4 4 0 0 1 4 4z"/><circle cx="472" cy="120" r="8"/><circle cx="40" cy="120" r="8"/><circle cx="472" cy="472" r="8"/><circle cx="40" cy="472" r="8"/></g></g></svg>