<svg height="512" viewBox="0 0 512 512" width="512" xmlns="http://www.w3.org/2000/svg"><g><g><path d="m456 136h-440v-80h480v39z" fill="#57565c"/><path d="m32 136h352v144h-352z" fill="#d8d7da"/><path d="m384 184h48v48h-48z" fill="#57565c"/><path d="m480 248-48-8v-64l48-8z" fill="#d8d7da"/><circle cx="56" cy="96" fill="#91cc04" r="16"/><path d="m168 280h80v32h-80z" fill="#57565c"/><path d="m192 312h32v80h-32z" fill="#d8d7da"/><circle cx="208" cy="424" fill="#57565c" r="32"/><circle cx="208" cy="424" fill="#d8d7da" r="8"/><path d="m48 408h128v32h-128z" fill="#d8d7da"/><path d="m16 392h32v64h-32z" fill="#57565c"/></g><g><path d="m496 48h-480a8 8 0 0 0 -8 8v80a8 8 0 0 0 8 8h8v136a8 8 0 0 0 8 8h128v24a8 8 0 0 0 8 8h16v72.02a40.225 40.225 0 0 0 -7.98 7.98h-120.02v-8a8 8 0 0 0 -8-8h-32a8 8 0 0 0 -8 8v64a8 8 0 0 0 8 8h32a8 8 0 0 0 8-8v-8h120.02a39.987 39.987 0 1 0 55.98-55.98v-72.02h16a8 8 0 0 0 8-8v-24h128a8 8 0 0 0 8-8v-40h32a8 8 0 0 0 6.68 7.89l48 8a8.4 8.4 0 0 0 1.32.11 8.009 8.009 0 0 0 8-8v-80a8.007 8.007 0 0 0 -9.32-7.89l-48 8a8 8 0 0 0 -6.68 7.89h-32v-32h64a8.019 8.019 0 0 0 5.73-2.41l40-41a8.044 8.044 0 0 0 2.27-5.59v-39a8 8 0 0 0 -8-8zm-456 400h-16v-48h16zm128-16h-112v-16h112zm272-249.22 32-5.34v61.12l-32-5.34zm-232 265.22a24 24 0 1 1 24-24 24.032 24.032 0 0 1 -24 24zm-8-64v-64h16v64zm40-80h-64v-16h64zm136-32h-336v-128h336zm48-80v32h-32v-32zm64-100.26-35.37 36.26h-428.63v-64h464z"/><path d="m64 256h96a8 8 0 0 0 0-16h-96a8 8 0 0 0 0 16z"/><path d="m64 232h24a8 8 0 0 0 0-16h-24a8 8 0 0 0 0 16z"/><path d="m56 120a24 24 0 1 0 -24-24 24.028 24.028 0 0 0 24 24zm0-32a8 8 0 1 1 -8 8 8.009 8.009 0 0 1 8-8z"/><circle cx="208" cy="424" r="8"/></g></g></svg>