<svg height="512" viewBox="0 0 512 512" width="512" xmlns="http://www.w3.org/2000/svg"><g><g><path d="m120 16h32v40h-32z" fill="#d8d7da"/><path d="m104 56h64v56h-64z" fill="#57565c"/><path d="m120 112h32v24h-32z" fill="#cca400"/><path d="m336 240h32v24h-32z" fill="#cca400"/><path d="m288 264h128v112h-128z" fill="#57565c"/><g fill="#d8d7da"><path d="m304 376h24v48h-24z"/><path d="m376 376h24v48h-24z"/></g></g><path d="m416 256h-40v-16a8 8 0 0 0 -8-8h-8v-164a60 60 0 0 0 -120 0v376a44.052 44.052 0 0 1 -44 44h-8a44.052 44.052 0 0 1 -44-44v-300h8a8 8 0 0 0 8-8v-16h8a8 8 0 0 0 8-8v-56a8 8 0 0 0 -8-8h-8v-32a8 8 0 0 0 -8-8h-32a8 8 0 0 0 -8 8v32h-8a8 8 0 0 0 -8 8v56a8 8 0 0 0 8 8h8v16a8 8 0 0 0 8 8h8v300a60.073 60.073 0 0 0 60 60h8a60.073 60.073 0 0 0 60-60v-376a44 44 0 0 1 88 0v164h-8a8 8 0 0 0 -8 8v16h-40a8 8 0 0 0 -8 8v112a8 8 0 0 0 8 8h8v40a8 8 0 0 0 8 8h24a8 8 0 0 0 8-8v-40h32v40a8 8 0 0 0 8 8h24a8 8 0 0 0 8-8v-40h8a8 8 0 0 0 8-8v-112a8 8 0 0 0 -8-8zm-288-232h16v24h-16zm-16 80v-40h48v40zm16 16h16v8h-16zm216 128h16v8h-16zm-24 168h-8v-32h8zm72 0h-8v-32h8zm16-48h-112v-96h112z"/></g></svg>