<svg height="512" viewBox="0 0 512 512" width="512" xmlns="http://www.w3.org/2000/svg"><g><g><path d="m392 224v224h-288v-320h288v40" fill="#2d2d30"/><path d="m56 448h384v48h-384z" fill="#57565c"/><path d="m80 16h336v112h-336z" fill="#57565c"/><circle cx="128" cy="72" fill="#d8d7da" r="24"/><circle cx="368" cy="72" fill="#d8d7da" r="24"/><path d="m200 16h96v64h-96z" fill="#cca400"/><path d="m184 128h128v32h-128z" fill="#898890"/><g fill="#d8d7da"><path d="m200 160h96v64h-96z"/><path d="m296 184h40v24h-40z"/><path d="m168 336h160a0 0 0 0 1 0 0v72a40 40 0 0 1 -40 40h-80a40 40 0 0 1 -40-40v-72a0 0 0 0 1 0 0z"/><path d="m328 352h28a20 20 0 0 1 20 20v8a20 20 0 0 1 -20 20h-28a0 0 0 0 1 0 0v-48a0 0 0 0 1 0 0z"/></g><path d="m336 168h100a20 20 0 0 1 20 20v16a20 20 0 0 1 -20 20h-100a0 0 0 0 1 0 0v-56a0 0 0 0 1 0 0z" fill="#aa6100"/></g><g><path d="m128 104a32 32 0 1 0 -32-32 32.036 32.036 0 0 0 32 32zm0-48a16 16 0 1 1 -16 16 16.019 16.019 0 0 1 16-16z"/><path d="m368 104a32 32 0 1 0 -32-32 32.036 32.036 0 0 0 32 32zm0-48a16 16 0 1 1 -16 16 16.019 16.019 0 0 1 16-16z"/><path d="m436 160h-36v-24h16a8 8 0 0 0 8-8v-112a8 8 0 0 0 -8-8h-336a8 8 0 0 0 -8 8v112a8 8 0 0 0 8 8h16v304h-40a8 8 0 0 0 -8 8v48a8 8 0 0 0 8 8h384a8 8 0 0 0 8-8v-48a8 8 0 0 0 -8-8h-40v-208h36a28.031 28.031 0 0 0 28-28v-16a28.031 28.031 0 0 0 -28-28zm-228-136h80v48h-80zm-120 96v-96h104v56a8 8 0 0 0 8 8h96a8 8 0 0 0 8-8v-56h104v96zm268 288a28.031 28.031 0 0 0 28-28v60h-60.26a47.8 47.8 0 0 0 12.26-32zm-20-16v-32h20a12.01 12.01 0 0 1 12 12v8a12.01 12.01 0 0 1 -12 12zm20-48h-20v-8a8 8 0 0 0 -8-8h-160a8 8 0 0 0 -8 8v72a47.8 47.8 0 0 0 12.26 32h-60.26v-304h64v24a8 8 0 0 0 8 8h8v56a8 8 0 0 0 8 8h40v8a8 8 0 0 0 16 0v-8h40a8 8 0 0 0 8-8v-8h24v8a8 8 0 0 0 8 8h48v140a28.031 28.031 0 0 0 -28-28zm-36 0v64a32.042 32.042 0 0 1 -32 32h-80a32.042 32.042 0 0 1 -32-32v-64zm-128-192v-16h112v16zm112 40h24v8h-24zm-16-24v48h-80v-48zm40 0v8h-24v-8h8a8 8 0 0 0 8-8v-24h64v24h-48a8 8 0 0 0 -8 8zm104 288v32h-368v-32zm16-252a12.01 12.01 0 0 1 -12 12h-92v-40h92a12.01 12.01 0 0 1 12 12z"/></g></g></svg>