<svg height="512" viewBox="0 0 512 512" width="512" xmlns="http://www.w3.org/2000/svg"><g><g><rect fill="#d8d7da" height="480" rx="20" width="176" x="168" y="16"/><path d="m304 88v32h-32v32h-32v-32h-32v-32h32v-32h32v32z" fill="#2d2d30"/><circle cx="256" cy="224" fill="#2d2d30" r="40"/><circle cx="256" cy="432" fill="#2d2d30" r="24"/><circle cx="256" cy="352" fill="#2d2d30" r="24"/><g fill="#d8d7da"><circle cx="192" cy="40" r="8"/><circle cx="320" cy="40" r="8"/><circle cx="192" cy="472" r="8"/><circle cx="320" cy="472" r="8"/></g></g><g><path d="m324 8h-136a28.031 28.031 0 0 0 -28 28v440a28.031 28.031 0 0 0 28 28h136a28.031 28.031 0 0 0 28-28v-440a28.031 28.031 0 0 0 -28-28zm12 468a12.01 12.01 0 0 1 -12 12h-136a12.01 12.01 0 0 1 -12-12v-440a12.01 12.01 0 0 1 12-12h136a12.01 12.01 0 0 1 12 12z"/><path d="m200 120a8 8 0 0 0 8 8h24v24a8 8 0 0 0 8 8h32a8 8 0 0 0 8-8v-24h24a8 8 0 0 0 8-8v-32a8 8 0 0 0 -8-8h-24v-24a8 8 0 0 0 -8-8h-32a8 8 0 0 0 -8 8v24h-24a8 8 0 0 0 -8 8zm16-24h24a8 8 0 0 0 8-8v-24h16v24a8 8 0 0 0 8 8h24v16h-24a8 8 0 0 0 -8 8v24h-16v-24a8 8 0 0 0 -8-8h-24z"/><path d="m208 224a48 48 0 1 0 48-48 48.054 48.054 0 0 0 -48 48zm80 0a32 32 0 1 1 -32-32 32.036 32.036 0 0 1 32 32z"/><path d="m256 400a32 32 0 1 0 32 32 32.036 32.036 0 0 0 -32-32zm0 48a16 16 0 1 1 16-16 16.019 16.019 0 0 1 -16 16z"/><path d="m256 320a32 32 0 1 0 32 32 32.036 32.036 0 0 0 -32-32zm0 48a16 16 0 1 1 16-16 16.019 16.019 0 0 1 -16 16z"/><circle cx="192" cy="40" r="8"/><circle cx="320" cy="40" r="8"/><circle cx="192" cy="472" r="8"/><circle cx="320" cy="472" r="8"/><path d="m320 288h-129a8 8 0 0 0 0 16h129a8 8 0 0 0 0-16z"/></g></g></svg>