<svg height="512" viewBox="0 0 512 512" width="512" xmlns="http://www.w3.org/2000/svg"><g><g><rect fill="#57565c" height="304" rx="20" width="416" x="16" y="104"/><path d="m472 408a16 16 0 0 1 -16-16v-256l16-32 16 32v256a16 16 0 0 1 -16 16z" fill="#57565c"/><path d="m456 152h32v64h-32z" fill="#d8d7da"/><g fill="#2d2d30"><circle cx="64" cy="256" r="24"/><path d="m48 144h32v64h-32z"/><path d="m48 304h32v64h-32z"/></g><path d="m144 136h256v240h-256z" fill="#d8d7da"/></g><g><path d="m412 96h-376a28.032 28.032 0 0 0 -28 28v264a28.032 28.032 0 0 0 28 28h376a28.032 28.032 0 0 0 28-28v-264a28.032 28.032 0 0 0 -28-28zm-388 292v-264a12.013 12.013 0 0 1 12-12h68v288h-68a12.013 12.013 0 0 1 -12-12zm400 0a12.013 12.013 0 0 1 -12 12h-292v-288h292a12.013 12.013 0 0 1 12 12z"/><path d="m495.16 132.42-16-32a8.009 8.009 0 0 0 -14.32 0l-16 32a8.081 8.081 0 0 0 -.84 3.58v256a24 24 0 0 0 48 0v-256a8.081 8.081 0 0 0 -.84-3.58zm-15.16 259.58a8 8 0 0 1 -16 0v-168h16zm0-184h-16v-48h16zm0-64h-16v-6.11l8-16 8 16z"/><path d="m64 288a32 32 0 1 0 -32-32 32.036 32.036 0 0 0 32 32zm0-48a16 16 0 1 1 -16 16 16.019 16.019 0 0 1 16-16z"/><circle cx="64" cy="256" r="8"/><path d="m48 216h32a8 8 0 0 0 8-8v-64a8 8 0 0 0 -8-8h-32a8 8 0 0 0 -8 8v64a8 8 0 0 0 8 8zm8-16v-16h16v16zm16-48v16h-16v-16z"/><path d="m80 296h-32a8 8 0 0 0 -8 8v64a8 8 0 0 0 8 8h32a8 8 0 0 0 8-8v-64a8 8 0 0 0 -8-8zm-8 16v16h-16v-16zm-16 48v-16h16v16z"/><path d="m400 128h-256a8 8 0 0 0 -8 8v240a8 8 0 0 0 8 8h256a8 8 0 0 0 8-8v-240a8 8 0 0 0 -8-8zm-8 240h-240v-224h240z"/></g></g></svg>