<svg height="512" viewBox="0 0 512 512" width="512" xmlns="http://www.w3.org/2000/svg"><g><g><rect fill="#57565c" height="336" rx="20" width="480" x="16" y="88"/><path d="m48 120h416v272h-416z" fill="#83d8f4"/><path d="m464 240v32h-136v120h-32v-120h-136v120h-32v-120h-80v-32h80v-120h32v120z" fill="#acabb1"/><path d="m408 184c0 17.673-32 56-32 56s-32-38.327-32-56a32 32 0 0 1 64 0z" fill="#d80027"/><circle cx="376" cy="184" fill="#d8d7da" r="8"/></g><g><path d="m476 80h-440a28.031 28.031 0 0 0 -28 28v296a28.031 28.031 0 0 0 28 28h440a28.031 28.031 0 0 0 28-28v-296a28.031 28.031 0 0 0 -28-28zm12 324a12.01 12.01 0 0 1 -12 12h-440a12.01 12.01 0 0 1 -12-12v-296a12.01 12.01 0 0 1 12-12h440a12.01 12.01 0 0 1 12 12z"/><path d="m464 112h-416a8 8 0 0 0 -8 8v272a8 8 0 0 0 8 8h416a8 8 0 0 0 8-8v-272a8 8 0 0 0 -8-8zm-408 16h64v104h-64zm64 256h-64v-104h64zm168 0h-120v-104h120zm168 0h-120v-104h120zm0-120h-128a8 8 0 0 0 -8 8v112h-16v-112a8 8 0 0 0 -8-8h-136a8 8 0 0 0 -8 8v112h-16v-112a8 8 0 0 0 -8-8h-72v-16h72a8 8 0 0 0 8-8v-112h16v112a8 8 0 0 0 8 8h296zm0-32h-63.58c10.18-13.79 23.58-34.5 23.58-48a40 40 0 0 0 -80 0c0 13.5 13.4 34.21 23.58 48h-191.58v-104h288zm-80.03-4.79c-16.48-21.25-23.97-37.72-23.97-43.21a24 24 0 0 1 48 0c0 8.59-12.58 28.27-24.03 43.21z"/><circle cx="376" cy="184" r="8"/></g></g></svg>