<svg height="512" viewBox="0 0 512 512" width="512" xmlns="http://www.w3.org/2000/svg"><g><g><path d="m136 16h240v112h-240z" fill="#d8d7da"/><circle cx="256" cy="72" fill="#cca400" r="24"/><circle cx="184" cy="72" fill="#cca400" r="24"/><path d="m200.971 55.029-11.314 11.314" fill="#d8d7da"/><circle cx="328" cy="72" fill="#cca400" r="24"/><path d="m112 304h288v192h-288z" fill="#acabb1"/><path d="m112 128h288v176h-288z" fill="#57565c"/><path d="m144 336h224v128h-224z" fill="#2d2d30"/><g fill="#cca400"><path d="m88 176h24v64h-24z"/><path d="m400 176h24v64h-24z"/></g></g><g><path d="m256 40a32 32 0 1 0 32 32 32.036 32.036 0 0 0 -32-32zm0 48a15.986 15.986 0 0 1 -8-29.835v5.835a8 8 0 0 0 16 0v-5.835a15.986 15.986 0 0 1 -8 29.835z"/><path d="m161.372 49.373a32 32 0 0 0 45.255 45.255 32 32 0 1 0 -45.256-45.254zm33.942 33.94a16.015 16.015 0 1 1 -7.189-26.753l-4.125 4.126a8 8 0 1 0 11.313 11.314l4.127-4.126a16 16 0 0 1 -4.126 15.439z"/><path d="m328 40a32 32 0 1 0 32 32 32.036 32.036 0 0 0 -32-32zm0 48a16 16 0 1 1 13.835-24h-5.835a8 8 0 0 0 0 16h5.835a16 16 0 0 1 -13.835 8z"/><path d="m368 328h-224a8 8 0 0 0 -8 8v128a8 8 0 0 0 8 8h224a8 8 0 0 0 8-8v-128a8 8 0 0 0 -8-8zm-8 128h-208v-112h208z"/><path d="m176 168h160a8 8 0 0 0 0-16h-160a8 8 0 0 0 0 16z"/><path d="m176 280h160a8 8 0 0 0 0-16h-160a8 8 0 0 0 0 16z"/><path d="m288 176h-64a8 8 0 0 0 0 16h64a8 8 0 0 0 0-16z"/><path d="m288 240h-64a8 8 0 0 0 0 16h64a8 8 0 0 0 0-16z"/><path d="m496 200h-64v-24a8 8 0 0 0 -8-8h-16v-40a8 8 0 0 0 -8-8h-16v-104a8 8 0 0 0 -8-8h-240a8 8 0 0 0 -8 8v104h-16a8 8 0 0 0 -8 8v40h-16a8 8 0 0 0 -8 8v24h-64a8 8 0 0 0 0 16h64v24a8 8 0 0 0 8 8h16v248a8 8 0 0 0 8 8h288a8 8 0 0 0 8-8v-248h16a8 8 0 0 0 8-8v-24h64a8 8 0 0 0 0-16zm-392 32h-8v-48h8zm40-208h224v96h-224zm248 464h-272v-176h272zm0-192h-272v-160h272zm24-64h-8v-48h8z"/></g></g></svg>