<svg height="512" viewBox="0 0 512 512" width="512" xmlns="http://www.w3.org/2000/svg"><g><g><path d="m408 100v228h-120l-104-104h-80v-124a19.994 19.994 0 0 1 20-20h264a19.994 19.994 0 0 1 20 20z" fill="#acabb1"/><path d="m274.27 232.69a63.966 63.966 0 1 0 -24.83-23.21" fill="#57565c"/><path d="m408 328v88h-304v-192h80l104 104z" fill="#57565c"/><path d="m408 416v60a19.994 19.994 0 0 1 -20 20h-264a19.994 19.994 0 0 1 -20-20v-60z" fill="#acabb1"/><circle cx="304" cy="176" fill="#cca400" r="16"/><path d="m200.26 298.456-15.716-15.716a12 12 0 0 1 .627-17.553l66.67-57.781a12 12 0 0 1 16.344.583l6.826 6.826a12 12 0 0 1 .583 16.344l-57.781 66.67a12 12 0 0 1 -17.553.627z" fill="#cca400"/><g fill="#d8d7da"><circle cx="128" cy="104" r="8"/><circle cx="384" cy="104" r="8"/><circle cx="128" cy="472" r="8"/><circle cx="384" cy="472" r="8"/></g><path d="m224 456h64v40h-64z" fill="#cca400"/><path d="m232 56h48v24h-48z" fill="#cca400"/></g><g><path d="m388 72h-100v-16a8 8 0 0 0 -8-8h-16v-32a8 8 0 0 0 -16 0v32h-16a8 8 0 0 0 -8 8v16h-100a28.031 28.031 0 0 0 -28 28v376a28.031 28.031 0 0 0 28 28h264a28.031 28.031 0 0 0 28-28v-376a28.031 28.031 0 0 0 -28-28zm-148-8h32v8h-32zm40 424h-48v-24h48zm120-12a12.01 12.01 0 0 1 -12 12h-92v-32a8 8 0 0 0 -8-8h-64a8 8 0 0 0 -8 8v32h-92a12.01 12.01 0 0 1 -12-12v-52h288zm0-68h-288v-176h68.69l14.19 14.19-14.95 12.95a20 20 0 0 0 -1.04 29.26l15.71 15.71a20.017 20.017 0 0 0 14.15 5.86c.24 0 .47 0 .71-.01a20.087 20.087 0 0 0 14.4-6.89l12.95-14.95 45.53 45.54a8.008 8.008 0 0 0 5.66 2.34h112zm-119.33-198.84-6.83-6.83a20.072 20.072 0 0 0 -21.4-4.46 56.006 56.006 0 1 1 33.24 31.05 20.051 20.051 0 0 0 -5.01-19.76zm-23.59 4.29a4.015 4.015 0 0 1 5.45.2l6.82 6.82a4.011 4.011 0 0 1 .2 5.45l-39.35 45.4c-.01.01-.01.02-.02.03l-18.41 21.24a4 4 0 0 1 -5.85.21l-15.72-15.72a4 4 0 0 1 .21-5.85l21.25-18.41a.01.01 0 0 1 .01-.01zm142.92 106.55h-108.69l-43.99-44 29.04-33.51a71.972 71.972 0 1 0 -37.03-34.82l-32.33 28.01-17.34-17.34a8.008 8.008 0 0 0 -5.66-2.34h-72v-116a12.01 12.01 0 0 1 12-12h264a12.01 12.01 0 0 1 12 12z"/><path d="m304 200a24 24 0 1 0 -24-24 24.028 24.028 0 0 0 24 24zm0-32a8 8 0 1 1 -8 8 8.009 8.009 0 0 1 8-8z"/><circle cx="128" cy="104" r="8"/><circle cx="384" cy="104" r="8"/><circle cx="128" cy="472" r="8"/><circle cx="384" cy="472" r="8"/><path d="m240 376h-104a8 8 0 0 0 0 16h104a8 8 0 0 0 0-16z"/><path d="m136 360h72a8 8 0 0 0 0-16h-72a8 8 0 0 0 0 16z"/></g></g></svg>