<svg height="512" viewBox="0 0 512 512" width="512" xmlns="http://www.w3.org/2000/svg"><g><g><g><path d="m56 272h56a0 0 0 0 1 0 0v176a0 0 0 0 1 0 0h-56a40 40 0 0 1 -40-40v-96a40 40 0 0 1 40-40z" fill="#787680"/><path d="m112 296h12a20 20 0 0 1 20 20v88a20 20 0 0 1 -20 20h-12a0 0 0 0 1 0 0v-128a0 0 0 0 1 0 0z" fill="#2d2d30"/><path d="m64 240h48v32h-48z" fill="#d8d7da"/><path d="m440 272h56a0 0 0 0 1 0 0v176a0 0 0 0 1 0 0h-56a40 40 0 0 1 -40-40v-96a40 40 0 0 1 40-40z" fill="#787680" transform="matrix(-1 0 0 -1 896 720)"/><path d="m368 296h12a20 20 0 0 1 20 20v88a20 20 0 0 1 -20 20h-12a0 0 0 0 1 0 0v-128a0 0 0 0 1 0 0z" fill="#2d2d30" transform="matrix(-1 0 0 -1 768 720)"/><path d="m400 240h48v32h-48z" fill="#d8d7da" transform="matrix(-1 0 0 -1 848 512)"/></g><g fill="#cca400"><path d="m80 192h16a0 0 0 0 1 0 0v48a0 0 0 0 1 0 0h-24a0 0 0 0 1 0 0v-40a8 8 0 0 1 8-8z"/><path d="m416 192h16a8 8 0 0 1 8 8v40a0 0 0 0 1 0 0h-24a0 0 0 0 1 0 0v-48a0 0 0 0 1 0 0z"/></g></g><path d="m456 264v-24a8 8 0 0 0 -8-8v-32a16.021 16.021 0 0 0 -16-16h-.7a185.458 185.458 0 0 0 -63.37-90.05 184.039 184.039 0 0 0 -223.86 0 185.458 185.458 0 0 0 -63.37 90.05h-.7a16.021 16.021 0 0 0 -16 16v32a8 8 0 0 0 -8 8v24a48.051 48.051 0 0 0 -48 48v96a48.051 48.051 0 0 0 48 48h56a8 8 0 0 0 8-8v-16h4a28.031 28.031 0 0 0 28-28v-88a28.031 28.031 0 0 0 -28-28h-4v-48a8 8 0 0 0 -8-8h-8v-40a8 8 0 0 0 -6.48-7.85 169.516 169.516 0 0 1 56.29-77.51 168.053 168.053 0 0 1 204.38 0 169.516 169.516 0 0 1 56.29 77.51 8 8 0 0 0 -6.48 7.85v40h-8a8 8 0 0 0 -8 8v48h-4a28.031 28.031 0 0 0 -28 28v88a28.031 28.031 0 0 0 28 28h4v16a8 8 0 0 0 8 8h56a48.051 48.051 0 0 0 48-48v-96a48.051 48.051 0 0 0 -48-48zm-336 40h4a12.01 12.01 0 0 1 12 12v88a12.01 12.01 0 0 1 -12 12h-4zm-40-104h8v32h-8zm24 240h-48a32.042 32.042 0 0 1 -32-32v-96a32.042 32.042 0 0 1 32-32h48zm0-192v16h-32v-16zm288 168h-4a12.01 12.01 0 0 1 -12-12v-88a12.01 12.01 0 0 1 12-12h4zm32-216h8v32h-8zm-16 48h32v16h-32zm80 160a32.042 32.042 0 0 1 -32 32h-48v-160h48a32.042 32.042 0 0 1 32 32z"/></g></svg>