<svg height="512" viewBox="0 0 512 512" width="512" xmlns="http://www.w3.org/2000/svg"><g><g><path d="m16 136h112v336h-112z" fill="#d8d7da" transform="matrix(-1 0 0 -1 144 608)"/><path d="m40 160h64v48h-64z" fill="#83d8f4" transform="matrix(-1 0 0 -1 144 368)"/><g fill="#d8d7da"><path d="m104 400h-64"/><path d="m104 424h-64"/><path d="m104 448h-64"/><rect height="336" rx="20" transform="matrix(-1 0 0 -1 592 608)" width="48" x="272" y="136"/><rect height="336" rx="20" transform="matrix(-1 0 0 -1 416 608)" width="48" x="184" y="136"/><rect height="336" rx="20" transform="matrix(-1 0 0 -1 944 608)" width="48" x="448" y="136"/><rect height="336" rx="20" transform="matrix(-1 0 0 -1 768 608)" width="48" x="360" y="136"/></g><path d="m408 168h40v272h-40z" fill="#57565c" transform="matrix(-1 0 0 -1 856 608)"/><path d="m320 168h40v272h-40z" fill="#57565c" transform="matrix(-1 0 0 -1 680 608)"/><path d="m232 168h40v272h-40z" fill="#57565c" transform="matrix(-1 0 0 -1 504 608)"/><path d="m128 168h56v272h-56z" fill="#57565c" transform="matrix(-1 0 0 -1 312 608)"/><path d="m256 112s-16-16 0-32 0-32 0-32" fill="#d8d7da"/><path d="m344 112s-16-16 0-32 0-32 0-32" fill="#d8d7da"/><path d="m432 112s-16-16 0-32 0-32 0-32" fill="#d8d7da"/></g><g><path d="m104 152h-64a8 8 0 0 0 -8 8v48a8 8 0 0 0 8 8h64a8 8 0 0 0 8-8v-48a8 8 0 0 0 -8-8zm-8 48h-48v-32h48z"/><path d="m104 392h-64a8 8 0 0 0 0 16h64a8 8 0 0 0 0-16z"/><path d="m104 416h-64a8 8 0 0 0 0 16h64a8 8 0 0 0 0-16z"/><path d="m104 440h-64a8 8 0 0 0 0 16h64a8 8 0 0 0 0-16z"/><path d="m476 128h-8a28.031 28.031 0 0 0 -28 28v4h-24v-4a28.031 28.031 0 0 0 -28-28h-8a28.031 28.031 0 0 0 -28 28v4h-24v-4a28.031 28.031 0 0 0 -28-28h-8a28.031 28.031 0 0 0 -28 28v4h-24v-4a28.031 28.031 0 0 0 -28-28h-8a28.031 28.031 0 0 0 -28 28v4h-40v-24a8 8 0 0 0 -8-8h-112a8 8 0 0 0 -8 8v336a8 8 0 0 0 8 8h112a8 8 0 0 0 8-8v-24h40v4a28.031 28.031 0 0 0 28 28h8a28.031 28.031 0 0 0 28-28v-4h24v4a28.031 28.031 0 0 0 28 28h8a28.031 28.031 0 0 0 28-28v-4h24v4a28.031 28.031 0 0 0 28 28h8a28.031 28.031 0 0 0 28-28v-4h24v4a28.031 28.031 0 0 0 28 28h8a28.031 28.031 0 0 0 28-28v-296a28.031 28.031 0 0 0 -28-28zm-356 336h-96v-320h96zm56-32h-40v-256h40zm48 20a12.01 12.01 0 0 1 -12 12h-8a12.01 12.01 0 0 1 -12-12v-296a12.01 12.01 0 0 1 12-12h8a12.01 12.01 0 0 1 12 12zm40-20h-24v-256h24zm48 20a12.01 12.01 0 0 1 -12 12h-8a12.01 12.01 0 0 1 -12-12v-296a12.01 12.01 0 0 1 12-12h8a12.01 12.01 0 0 1 12 12zm40-20h-24v-256h24zm48 20a12.01 12.01 0 0 1 -12 12h-8a12.01 12.01 0 0 1 -12-12v-296a12.01 12.01 0 0 1 12-12h8a12.01 12.01 0 0 1 12 12zm40-20h-24v-256h24zm48 20a12.01 12.01 0 0 1 -12 12h-8a12.01 12.01 0 0 1 -12-12v-296a12.01 12.01 0 0 1 12-12h8a12.01 12.01 0 0 1 12 12z"/><path d="m250.343 117.657a8 8 0 1 0 11.357-11.268 20.328 20.328 0 0 1 -4.236-7.308c-1.47-4.83-.138-9.1 4.191-13.424 15.889-15.889 8.705-34.608 0-43.314a8 8 0 1 0 -11.355 11.268 20.328 20.328 0 0 1 4.236 7.308c1.47 4.83.138 9.1-4.191 13.424-15.891 15.889-8.707 34.608-.002 43.314z"/><path d="m338.343 117.657a8 8 0 1 0 11.357-11.268 20.328 20.328 0 0 1 -4.236-7.308c-1.47-4.83-.138-9.1 4.191-13.424 15.889-15.889 8.705-34.608 0-43.314a8 8 0 1 0 -11.355 11.268 20.328 20.328 0 0 1 4.236 7.308c1.47 4.83.138 9.1-4.191 13.424-15.891 15.889-8.707 34.608-.002 43.314z"/><path d="m426.343 117.657a8 8 0 1 0 11.357-11.268 20.328 20.328 0 0 1 -4.236-7.308c-1.47-4.83-.138-9.1 4.191-13.424 15.889-15.889 8.705-34.608 0-43.314a8 8 0 1 0 -11.355 11.268 20.328 20.328 0 0 1 4.236 7.308c1.47 4.83.138 9.1-4.191 13.424-15.891 15.889-8.707 34.608-.002 43.314z"/></g></g></svg>