<svg height="512" viewBox="0 0 512 512" width="512" xmlns="http://www.w3.org/2000/svg"><g><g><path d="m16 464h480v32h-480z" fill="#57565c"/><path d="m112 440h288v24h-288z" fill="#2d2d30"/><path d="m224 16h64v24h-64z" fill="#2d2d30"/><path d="m128 40h256v32h-256z" fill="#acabb1"/><path d="m416 440h-320l32-368h256l2.09 24 2.78 32 10.23 117.63 2.78 31.95z" fill="#57565c"/><path d="m111.65 256.05-71.65-160.05h85.91" fill="#2d2d30"/><path d="m472 96v160l-70.12 21.58-2.78-31.95 40.9-13.63v-104h-51.13l-2.78-32z" fill="#2d2d30"/><g fill="#cca400"><path d="m440 432h32v32h-32z"/><path d="m232 128h48v240h-48z"/></g></g><g><path d="m496 456h-16v-24a8 8 0 0 0 -8-8h-32a8 8 0 0 0 -8 8v24h-24v-8h8a7.99 7.99 0 0 0 7.97-8.69l-13.56-155.98 63.94-19.68a8.011 8.011 0 0 0 5.65-7.65v-160a8 8 0 0 0 -8-8h-78.58l-1.42-16.35v-31.65a8 8 0 0 0 -8-8h-88v-16a8 8 0 0 0 -8-8h-64a8 8 0 0 0 -8 8v16h-88a8 8 0 0 0 -8 8v31.65l-1.42 16.35h-78.58a8 8 0 0 0 -7.3 11.27l71.09 158.8-15.76 181.24a7.99 7.99 0 0 0 7.97 8.69h8v8h-88a8 8 0 0 0 -8 8v32a8 8 0 0 0 8 8h480a8 8 0 0 0 8-8v-32a8 8 0 0 0 -8-8zm-48-16h16v16h-16zm16-336v146.09l-55.01 16.93-1.37-15.8 34.91-11.63a8 8 0 0 0 5.47-7.59v-104a8 8 0 0 0 -8-8h-43.79l-1.4-16zm-57.81 130.83-.2-2.32-8.39-96.51h34.4v90.23zm-174.19-210.83h48v8h-48zm-96 24h240v16h-240zm-.67 32h241.34l1.45 16.69v.01l2.78 31.95v.04l10.23 117.63 16.14 185.68h-302.54zm256.67 368v8h-272v-8zm-339.65-344h64.84l-10.55 121.28zm435.65 384h-464v-16h464z"/><path d="m280 120h-48a8 8 0 0 0 -8 8v240a8 8 0 0 0 8 8h48a8 8 0 0 0 8-8v-240a8 8 0 0 0 -8-8zm-8 240h-32v-224h32z"/></g></g></svg>