<svg height="512" viewBox="0 0 512 512" width="512" xmlns="http://www.w3.org/2000/svg"><g><g><path d="m312 48h-112l-8-32h128z" fill="#57565c"/><path d="m448 368h-384a192.912 192.912 0 0 1 2.66-32h378.68a192.912 192.912 0 0 1 2.66 32z" fill="#d8d7da"/><path d="m445.34 336h-378.68c15.23-90.81 94.2-160 189.34-160s174.11 69.19 189.34 160z" fill="#57565c"/><path d="m168 368a88 88 0 0 0 176 0" fill="#cca400"/><g fill="#d8d7da"><path d="m176.804 447.196-11.314 11.314"/><path d="m335.196 447.196 11.314 11.314"/><path d="m224 144h64v32h-64z"/></g></g><g><path d="m296 172.02v-28.02a8 8 0 0 0 -8-8h-24v-80h48a8 8 0 0 0 7.76-6.06l8-32a8 8 0 0 0 -7.76-9.94h-128a8 8 0 0 0 -7.76 9.94l8 32a8 8 0 0 0 7.76 6.06h48v80h-24a8 8 0 0 0 -8 8v28.02c-91.18 18.58-160 99.39-160 195.98a8 8 0 0 0 8 8h96.34a95.993 95.993 0 0 0 191.32 0h96.34a8 8 0 0 0 8-8c0-96.59-68.82-177.4-160-195.98zm-89.75-132.02-4-16h107.5l-4 16zm25.75 112h48v16h-48zm24 32c87.72 0 161.3 61.71 179.61 144h-359.22c18.31-82.29 91.89-144 179.61-144zm0 264a80.115 80.115 0 0 1 -79.6-72h159.2a80.115 80.115 0 0 1 -79.6 72zm-183.83-88c.23-5.4.71-10.73 1.4-16h364.86c.69 5.27 1.17 10.6 1.4 16z"/><path d="m256 472a8 8 0 0 0 -8 8v16a8 8 0 0 0 16 0v-16a8 8 0 0 0 -8-8z"/><path d="m171.146 441.539-11.313 11.314a8 8 0 0 0 11.314 11.314l11.314-11.313a8 8 0 0 0 -11.315-11.315z"/><path d="m340.854 441.539a8 8 0 0 0 -11.315 11.315l11.314 11.313a8 8 0 0 0 11.314-11.314z"/></g></g></svg>