<svg height="512" viewBox="0 0 512 512" width="512" xmlns="http://www.w3.org/2000/svg"><g><g><path d="m424 208v268a19.994 19.994 0 0 1 -20 20h-296a19.994 19.994 0 0 1 -20-20v-116l32-16v-64h-32v-71l64-33v-112l48-48h204a19.994 19.994 0 0 1 20 20v92z" fill="#57565c"/><path d="m176 408h208v32h-208z" fill="#3d9ae2"/></g><g><path d="m404 8h-204a8.008 8.008 0 0 0 -5.66 2.34l-48 48a8.008 8.008 0 0 0 -2.34 5.66v107.12l-59.67 30.77a8 8 0 0 0 -4.33 7.11v71a8 8 0 0 0 8 8h24v51.06l-27.58 13.78a8.011 8.011 0 0 0 -4.42 7.16v116a28.031 28.031 0 0 0 28 28h296a28.031 28.031 0 0 0 28-28v-440a28.031 28.031 0 0 0 -28-28zm12 468a12.01 12.01 0 0 1 -12 12h-296a12.01 12.01 0 0 1 -12-12v-111.06l27.58-13.78a8.011 8.011 0 0 0 4.42-7.16v-64a8 8 0 0 0 -8-8h-24v-58.12l59.67-30.77a8 8 0 0 0 4.33-7.11v-108.69l43.31-43.31h200.69a12.01 12.01 0 0 1 12 12z"/><path d="m384 400h-208a8 8 0 0 0 -8 8v32a8 8 0 0 0 8 8h208a8 8 0 0 0 8-8v-32a8 8 0 0 0 -8-8zm-8 32h-192v-16h192z"/><path d="m352 456h-144a8 8 0 0 0 0 16h144a8 8 0 0 0 0-16z"/><path d="m256 104a8 8 0 0 0 8-8v-48a8 8 0 0 0 -16 0v48a8 8 0 0 0 8 8z"/><path d="m224 104a8 8 0 0 0 8-8v-48a8 8 0 0 0 -16 0v48a8 8 0 0 0 8 8z"/><path d="m192 104a8 8 0 0 0 8-8v-24a8 8 0 0 0 -16 0v24a8 8 0 0 0 8 8z"/><path d="m352 104a8 8 0 0 0 8-8v-48a8 8 0 0 0 -16 0v48a8 8 0 0 0 8 8z"/><path d="m384 40a8 8 0 0 0 -8 8v48a8 8 0 0 0 16 0v-48a8 8 0 0 0 -8-8z"/><path d="m320 104a8 8 0 0 0 8-8v-48a8 8 0 0 0 -16 0v48a8 8 0 0 0 8 8z"/><path d="m288 104a8 8 0 0 0 8-8v-48a8 8 0 0 0 -16 0v48a8 8 0 0 0 8 8z"/></g></g></svg>