<svg height="512" viewBox="0 0 512 512" width="512" xmlns="http://www.w3.org/2000/svg"><g><g><rect fill="#d8d7da" height="272" rx="80" width="192" x="96" y="224"/><path d="m176 264h32v48h-32z" fill="#57565c"/><path d="m176 176h32v48h-32z" fill="#cca400"/></g><g><path d="m176 256a8 8 0 0 0 -8 8v48a8 8 0 0 0 8 8h32a8 8 0 0 0 8-8v-48a8 8 0 0 0 -8-8zm24 48h-16v-32h16z"/><path d="m336 8h-64a88.1 88.1 0 0 0 -88 88v72h-8a8 8 0 0 0 -8 8v40.37a88.106 88.106 0 0 0 -80 87.63v112a88.1 88.1 0 0 0 88 88h32a88.1 88.1 0 0 0 88-88v-112a88.106 88.106 0 0 0 -80-87.63v-40.37a8 8 0 0 0 -8-8h-8v-72a72.083 72.083 0 0 1 72-72h64a72.083 72.083 0 0 1 72 72v368a8 8 0 0 0 16 0v-368a88.1 88.1 0 0 0 -88-88zm-152 176h16v32h-16zm24 48a72.083 72.083 0 0 1 72 72v112a72.083 72.083 0 0 1 -72 72h-32a72.083 72.083 0 0 1 -72-72v-112a72.083 72.083 0 0 1 72-72z"/><path d="m416 480a8 8 0 0 0 -8 8v8a8 8 0 0 0 16 0v-8a8 8 0 0 0 -8-8z"/></g></g></svg>