<svg height="512" viewBox="0 0 512 512" width="512" xmlns="http://www.w3.org/2000/svg"><g><g><rect fill="#2d2d30" height="480" rx="20" width="480" x="16" y="16"/><circle cx="256" cy="256" fill="#d8d7da" r="216"/><circle cx="256" cy="256" fill="#57565c" r="104"/><path d="m200 288v-64l56 32z" fill="#d80027"/><g fill="#d8d7da"><path d="m384 232 24 24-24 24"/><path d="m424 232 24 24-24 24"/><path d="m128 280-24-24 24-24"/><path d="m88 280-24-24 24-24"/><circle cx="48" cy="48" r="8"/><circle cx="464" cy="48" r="8"/><circle cx="48" cy="464" r="8"/><circle cx="464" cy="464" r="8"/></g></g><g><path d="m476 8h-440a28.031 28.031 0 0 0 -28 28v440a28.031 28.031 0 0 0 28 28h440a28.031 28.031 0 0 0 28-28v-440a28.031 28.031 0 0 0 -28-28zm12 468a12.01 12.01 0 0 1 -12 12h-440a12.01 12.01 0 0 1 -12-12v-440a12.01 12.01 0 0 1 12-12h440a12.01 12.01 0 0 1 12 12z"/><path d="m259.969 249.054-56-32a8 8 0 0 0 -11.969 6.946v64a8 8 0 0 0 11.969 6.946l56-32a8 8 0 0 0 0-13.892zm-51.969 25.16v-36.428l31.875 18.214z"/><path d="m288 216a8 8 0 0 0 -8 8v64a8 8 0 0 0 16 0v-64a8 8 0 0 0 -8-8z"/><path d="m256 144a112 112 0 1 0 112 112 112.123 112.123 0 0 0 -112-112zm0 208a96 96 0 1 1 96-96 96.115 96.115 0 0 1 -96 96z"/><path d="m414.39 97.61a224 224 0 1 0 -316.78 316.78 224 224 0 1 0 316.78-316.78zm-158.39 366.39c-114.69 0-208-93.31-208-208s93.31-208 208-208 208 93.31 208 208-93.31 208-208 208z"/><path d="m320 224v64a8 8 0 0 1 -16 0v-64a8 8 0 0 1 16 0z"/><path d="m232 104h16v16a8 8 0 0 0 16 0v-16h16a8 8 0 0 0 0-16h-16v-16a8 8 0 0 0 -16 0v16h-16a8 8 0 0 0 0 16z"/><path d="m280 408h-48a8 8 0 0 0 0 16h48a8 8 0 0 0 0-16z"/><path d="m378.343 226.343a8 8 0 0 0 0 11.314l18.344 18.343-18.344 18.343a8 8 0 0 0 11.314 11.314l24-24a8 8 0 0 0 0-11.314l-24-24a8 8 0 0 0 -11.314 0z"/><path d="m436.687 256-18.344 18.343a8 8 0 0 0 11.314 11.314l24-24a8 8 0 0 0 0-11.314l-24-24a8 8 0 0 0 -11.314 11.314z"/><path d="m133.657 226.343a8 8 0 0 0 -11.314 0l-24 24a8 8 0 0 0 0 11.314l24 24a8 8 0 0 0 11.314-11.314l-18.344-18.343 18.344-18.343a8 8 0 0 0 0-11.314z"/><path d="m75.313 256 18.344-18.343a8 8 0 0 0 -11.314-11.314l-24 24a8 8 0 0 0 0 11.314l24 24a8 8 0 1 0 11.314-11.314z"/><circle cx="48" cy="48" r="8"/><circle cx="464" cy="48" r="8"/><circle cx="48" cy="464" r="8"/><circle cx="464" cy="464" r="8"/></g></g></svg>