<svg height="512" viewBox="0 0 512 512" width="512" xmlns="http://www.w3.org/2000/svg"><g><g><path d="m184 104h144a0 0 0 0 1 0 0v120a40 40 0 0 1 -40 40h-64a40 40 0 0 1 -40-40v-120a0 0 0 0 1 0 0z" fill="#d8d7da"/><path d="m200 16h24v88h-24z" fill="#57565c"/><path d="m288 16h24v88h-24z" fill="#57565c"/><circle cx="256" cy="184" fill="#91cc04" r="16"/><path d="m232 264h48v24h-48z" fill="#cca400"/><path d="m240 288h32v208h-32z" fill="#57565c"/></g><g><path d="m328 96h-8v-80a8 8 0 0 0 -8-8h-24a8 8 0 0 0 -8 8v80h-48v-80a8 8 0 0 0 -8-8h-24a8 8 0 0 0 -8 8v80h-8a8 8 0 0 0 -8 8v120a48.051 48.051 0 0 0 48 48v16a8 8 0 0 0 8 8v200a8 8 0 0 0 8 8h32a8 8 0 0 0 8-8v-200a8 8 0 0 0 8-8v-16a48.051 48.051 0 0 0 48-48v-120a8 8 0 0 0 -8-8zm-32-72h8v72h-8zm-88 0h8v72h-8zm56 464h-16v-192h16zm8-208h-32v-8h32zm48-56a32.036 32.036 0 0 1 -32 32h-24v-24a8 8 0 0 0 -16 0v24h-24a32.036 32.036 0 0 1 -32-32v-112h56v24a8 8 0 0 0 16 0v-24h56z"/><path d="m256 160a24 24 0 1 0 24 24 24.027 24.027 0 0 0 -24-24zm0 32a8 8 0 1 1 8-8 8.009 8.009 0 0 1 -8 8z"/></g></g></svg>