<svg height="512" viewBox="0 0 512 512" width="512" xmlns="http://www.w3.org/2000/svg"><g><g><rect fill="#57565c" height="432" rx="20" width="272" x="120" y="64"/><g fill="#d8d7da"><path d="m144 88h224v384h-224z"/><circle cx="168" cy="112" r="8"/><circle cx="344" cy="112" r="8"/><circle cx="168" cy="448" r="8"/><circle cx="344" cy="448" r="8"/></g><circle cx="256" cy="184" fill="#2d2d30" r="72"/><circle cx="256" cy="376" fill="#2d2d30" r="72"/><path d="m232 40h48v24h-48z" fill="#cca400"/></g><g><path d="m372 56h-84v-16a8 8 0 0 0 -8-8h-16v-16a8 8 0 0 0 -16 0v16h-16a8 8 0 0 0 -8 8v16h-84a28.031 28.031 0 0 0 -28 28v392a28.031 28.031 0 0 0 28 28h232a28.031 28.031 0 0 0 28-28v-392a28.031 28.031 0 0 0 -28-28zm-132-8h32v8h-32zm144 428a12.01 12.01 0 0 1 -12 12h-232a12.01 12.01 0 0 1 -12-12v-392a12.01 12.01 0 0 1 12-12h232a12.01 12.01 0 0 1 12 12z"/><path d="m368 80h-224a8 8 0 0 0 -8 8v384a8 8 0 0 0 8 8h224a8 8 0 0 0 8-8v-384a8 8 0 0 0 -8-8zm-8 384h-208v-368h208z"/><circle cx="168" cy="112" r="8"/><circle cx="344" cy="112" r="8"/><circle cx="168" cy="448" r="8"/><circle cx="344" cy="448" r="8"/><path d="m256 264a80 80 0 1 0 -80-80 80.091 80.091 0 0 0 80 80zm0-144a64 64 0 1 1 -64 64 64.072 64.072 0 0 1 64-64z"/><path d="m224 200a8 8 0 0 0 8-8v-16a8 8 0 0 0 -16 0v16a8 8 0 0 0 8 8z"/><path d="m288 200a8 8 0 0 0 8-8v-16a8 8 0 0 0 -16 0v16a8 8 0 0 0 8 8z"/><path d="m256 296a80 80 0 1 0 80 80 80.091 80.091 0 0 0 -80-80zm0 144a64 64 0 1 1 64-64 64.072 64.072 0 0 1 -64 64z"/><path d="m224 360a8 8 0 0 0 -8 8v16a8 8 0 0 0 16 0v-16a8 8 0 0 0 -8-8z"/><path d="m288 360a8 8 0 0 0 -8 8v16a8 8 0 0 0 16 0v-16a8 8 0 0 0 -8-8z"/><path d="m280 288a8 8 0 0 0 0-16h-48a8 8 0 0 0 0 16z"/></g></g></svg>