<svg height="512" viewBox="0 0 512 512" width="512" xmlns="http://www.w3.org/2000/svg"><g><g><g><path d="m96 16h32v40h-32z" fill="#d8d7da"/><path d="m80 56h64v56h-64z" fill="#57565c"/><path d="m96 112h32v24h-32z" fill="#3d9ae2"/></g><rect fill="#d8d7da" height="368" rx="20" width="240" x="192" y="16"/><path d="m352 384h32v24h-32z" fill="#3d9ae2"/><g fill="#d8d7da"><circle cx="216" cy="40" r="8"/><circle cx="408" cy="40" r="8"/><circle cx="216" cy="360" r="8"/><circle cx="408" cy="360" r="8"/></g><path d="m240 64h144v272h-144z" fill="#57565c"/></g><g><path d="m412 8h-200a28.031 28.031 0 0 0 -28 28v328a28.031 28.031 0 0 0 28 28h132v16a8 8 0 0 0 8 8h8v16a56.062 56.062 0 0 1 -56 56h-128a56.062 56.062 0 0 1 -56-56v-288h8a8 8 0 0 0 8-8v-16h8a8 8 0 0 0 8-8v-56a8 8 0 0 0 -8-8h-8v-32a8 8 0 0 0 -8-8h-32a8 8 0 0 0 -8 8v32h-8a8 8 0 0 0 -8 8v56a8 8 0 0 0 8 8h8v16a8 8 0 0 0 8 8h8v288a72.083 72.083 0 0 0 72 72h128a72.083 72.083 0 0 0 72-72v-16h8a8 8 0 0 0 8-8v-16h20a28.031 28.031 0 0 0 28-28v-328a28.031 28.031 0 0 0 -28-28zm-308 16h16v24h-16zm-16 80v-40h48v40zm16 16h16v8h-16zm272 280h-16v-8h16zm48-36a12.01 12.01 0 0 1 -12 12h-200a12.01 12.01 0 0 1 -12-12v-328a12.01 12.01 0 0 1 12-12h200a12.01 12.01 0 0 1 12 12z"/><circle cx="216" cy="40" r="8"/><circle cx="408" cy="40" r="8"/><circle cx="216" cy="360" r="8"/><circle cx="408" cy="360" r="8"/><path d="m384 56h-144a8 8 0 0 0 -8 8v272a8 8 0 0 0 8 8h144a8 8 0 0 0 8-8v-272a8 8 0 0 0 -8-8zm-8 272h-128v-256h128z"/></g></g></svg>