<svg height="512" viewBox="0 0 512 512" width="512" xmlns="http://www.w3.org/2000/svg"><g><g><g fill="#d8d7da"><path d="m392 80h-104l-32 24h-136v-36a20 20 0 0 1 20-20h232a20 20 0 0 1 20 20z"/><path d="m136 48 184-32"/><circle cx="144" cy="72" r="8"/><circle cx="176" cy="72" r="8"/></g><path d="m120 104h272a0 0 0 0 1 0 0v348a20 20 0 0 1 -20 20h-232a20 20 0 0 1 -20-20v-348a0 0 0 0 1 0 0z" fill="#acabb1"/><path d="m136 472h32v24h-32z" fill="#d8d7da"/><path d="m344 472h32v24h-32z" fill="#d8d7da"/><path d="m208 128h96v32h-96z" fill="#cca400"/><path d="m208 440h96v32h-96z" fill="#cca400"/></g><g><path d="m392 88a8 8 0 0 0 8-8v-12a28.031 28.031 0 0 0 -28-28h-143.31l92.68-16.12a8 8 0 0 0 -2.74-15.76l-184 32a7.952 7.952 0 0 0 -2.94 1.14 28.053 28.053 0 0 0 -19.69 26.74v384a28.026 28.026 0 0 0 16 25.29v18.71a8 8 0 0 0 8 8h32a8 8 0 0 0 8-8v-16h160v16a8 8 0 0 0 8 8h32a8 8 0 0 0 8-8v-18.71a28.026 28.026 0 0 0 16-25.29v-348a8 8 0 0 0 -8-8h-112l10.67-8zm-232 400h-16v-8h16zm136-24h-80v-16h80zm72 24h-16v-8h16zm16-36a12.01 12.01 0 0 1 -12 12h-60v-24a8 8 0 0 0 -8-8h-96a8 8 0 0 0 -8 8v24h-60a12.01 12.01 0 0 1 -12-12v-44h256zm0-60h-256v-56h256zm0-72h-256v-56h256zm0-72h-256v-56h256zm0-136v64h-256v-64zm-100.8-38.4-29.87 22.4h-125.33v-28a12.01 12.01 0 0 1 12-12h232a12.01 12.01 0 0 1 12 12v4h-96a7.982 7.982 0 0 0 -4.8 1.6z"/><circle cx="144" cy="72" r="8"/><circle cx="176" cy="72" r="8"/><path d="m200 128v32a8 8 0 0 0 8 8h96a8 8 0 0 0 8-8v-32a8 8 0 0 0 -8-8h-96a8 8 0 0 0 -8 8zm16 8h80v16h-80z"/><path d="m232 224h48a8 8 0 0 0 0-16h-48a8 8 0 0 0 0 16z"/><path d="m280 280h-48a8 8 0 0 0 0 16h48a8 8 0 0 0 0-16z"/><path d="m280 352h-48a8 8 0 0 0 0 16h48a8 8 0 0 0 0-16z"/></g></g></svg>