<svg height="512" viewBox="0 0 512 512" width="512" xmlns="http://www.w3.org/2000/svg"><g><g><path d="m160 152h192v288h-192z" fill="#d8d7da"/><path d="m36 152h124v288h-124a19.994 19.994 0 0 1 -20-20v-248a19.994 19.994 0 0 1 20-20z" fill="#57565c"/><path d="m496 172v248a19.994 19.994 0 0 1 -20 20h-124v-288h124a19.994 19.994 0 0 1 20 20z" fill="#57565c"/><path d="m184 184h144v48h-144z" fill="#83d8f4"/><circle cx="432" cy="216" fill="#cca400" r="40"/><circle cx="432" cy="216" fill="#d8d7da" r="16"/><circle cx="424" cy="360" fill="#cca400" r="48"/><circle cx="424" cy="360" fill="#d8d7da" r="16"/><circle cx="80" cy="216" fill="#cca400" r="40"/><circle cx="80" cy="216" fill="#d8d7da" r="16"/><circle cx="88" cy="360" fill="#cca400" r="48"/><circle cx="88" cy="360" fill="#d8d7da" r="16"/><g fill="#cca400"><circle cx="216" cy="288" r="32"/><path d="m216 80h80v32h-80z"/><circle cx="304" cy="288" r="24"/></g></g><g><path d="m476 144h-132v-28a28.031 28.031 0 0 0 -28-28h-12v-8a8 8 0 0 0 -8-8h-80a8 8 0 0 0 -8 8v8h-12a28.031 28.031 0 0 0 -28 28v28h-132a28.031 28.031 0 0 0 -28 28v248a28.031 28.031 0 0 0 28 28h440a28.031 28.031 0 0 0 28-28v-248a28.031 28.031 0 0 0 -28-28zm-252-56h64v16h-64zm-40 28a12.01 12.01 0 0 1 12-12h12v8a8 8 0 0 0 8 8h80a8 8 0 0 0 8-8v-8h12a12.01 12.01 0 0 1 12 12v28h-144zm-32 316h-116a12.01 12.01 0 0 1 -12-12v-248a12.01 12.01 0 0 1 12-12h116zm192 0h-176v-272h176zm144-12a12.01 12.01 0 0 1 -12 12h-116v-272h116a12.01 12.01 0 0 1 12 12z"/><path d="m184 240h144a8 8 0 0 0 8-8v-48a8 8 0 0 0 -8-8h-144a8 8 0 0 0 -8 8v48a8 8 0 0 0 8 8zm8-48h8v16a8 8 0 0 0 16 0v-16h8v8a8 8 0 0 0 16 0v-8h8v16a8 8 0 0 0 16 0v-16h8v8a8 8 0 0 0 16 0v-8h8v16a8 8 0 0 0 16 0v-16h8v32h-128z"/><path d="m184 352h144a8 8 0 0 0 0-16h-144a8 8 0 0 0 0 16z"/><path d="m184 384h144a8 8 0 0 0 0-16h-144a8 8 0 0 0 0 16z"/><path d="m328 400h-144a8 8 0 0 0 0 16h144a8 8 0 0 0 0-16z"/><path d="m432 168a48 48 0 1 0 48 48 48.054 48.054 0 0 0 -48-48zm0 80a32 32 0 1 1 32-32 32.036 32.036 0 0 1 -32 32z"/><path d="m432 192a24 24 0 1 0 24 24 24.027 24.027 0 0 0 -24-24zm0 32a8 8 0 1 1 8-8 8.009 8.009 0 0 1 -8 8z"/><path d="m424 304a56 56 0 1 0 56 56 56.063 56.063 0 0 0 -56-56zm0 96a40 40 0 1 1 40-40 40.045 40.045 0 0 1 -40 40z"/><path d="m424 336a24 24 0 1 0 24 24 24.027 24.027 0 0 0 -24-24zm0 32a8 8 0 1 1 8-8 8.009 8.009 0 0 1 -8 8z"/><path d="m80 264a48 48 0 1 0 -48-48 48.054 48.054 0 0 0 48 48zm0-80a32 32 0 1 1 -32 32 32.036 32.036 0 0 1 32-32z"/><path d="m80 240a24 24 0 1 0 -24-24 24.027 24.027 0 0 0 24 24zm0-32a8 8 0 1 1 -8 8 8.009 8.009 0 0 1 8-8z"/><path d="m88 304a56 56 0 1 0 56 56 56.063 56.063 0 0 0 -56-56zm0 96a40 40 0 1 1 40-40 40.045 40.045 0 0 1 -40 40z"/><path d="m88 336a24 24 0 1 0 24 24 24.027 24.027 0 0 0 -24-24zm0 32a8 8 0 1 1 8-8 8.009 8.009 0 0 1 -8 8z"/><path d="m216 328a40 40 0 1 0 -40-40 40.045 40.045 0 0 0 40 40zm-8-62.624v6.624a8 8 0 0 0 16 0v-6.624a24 24 0 1 1 -16 0z"/><path d="m304 256a32 32 0 1 0 32 32 32.036 32.036 0 0 0 -32-32zm0 48a16 16 0 1 1 16-16 16.019 16.019 0 0 1 -16 16z"/></g></g></svg>