<svg height="512" viewBox="0 0 512 512" width="512" xmlns="http://www.w3.org/2000/svg"><g><g><path d="m88 48h208a0 0 0 0 1 0 0v224a80 80 0 0 1 -80 80h-48a80 80 0 0 1 -80-80v-224a0 0 0 0 1 0 0z" fill="#d8d7da"/><path d="m88 48h208v64h-208z" fill="#57565c"/><path d="m144 112h96v32h-96z" fill="#cca400"/><path d="m216 224v16h-48v-16a24 24 0 0 1 48 0z" fill="#83d8f4"/><path d="m216 240v48a24 24 0 0 1 -48 0v-48z" fill="#acabb1"/><path d="m176 352h32v32h-32z" fill="#cca400"/><path d="m416 16v8" fill="#d8d7da"/></g><g><path d="m192 320a32.036 32.036 0 0 0 32-32v-64a32 32 0 0 0 -64 0v64a32.036 32.036 0 0 0 32 32zm0-16a16.019 16.019 0 0 1 -16-16v-40h32v40a16.019 16.019 0 0 1 -16 16zm0-96a16.019 16.019 0 0 1 16 16v8h-32v-8a16.019 16.019 0 0 1 16-16z"/><path d="m416 40a8 8 0 0 0 -8 8v368a72.083 72.083 0 0 1 -72 72h-64a72.083 72.083 0 0 1 -72-72v-24h8a8 8 0 0 0 8-8v-24a88.1 88.1 0 0 0 88-88v-224a8 8 0 0 0 -8-8v-24a8 8 0 0 0 -16 0v24h-16v-24a8 8 0 0 0 -16 0v24h-16v-24a8 8 0 0 0 -16 0v24h-16v-24a8 8 0 0 0 -16 0v24h-16v-24a8 8 0 0 0 -16 0v24h-16v-24a8 8 0 0 0 -16 0v24h-16v-24a8 8 0 0 0 -16 0v24a8 8 0 0 0 -8 8v224a88.1 88.1 0 0 0 88 88v24a8 8 0 0 0 8 8h8v24a88.1 88.1 0 0 0 88 88h64a88.1 88.1 0 0 0 88-88v-368a8 8 0 0 0 -8-8zm-320 16h192v48h-192zm136 64v16h-80v-16zm-64 224a72.083 72.083 0 0 1 -72-72v-152h40v24a8 8 0 0 0 8 8h96a8 8 0 0 0 8-8v-24h40v152a72.083 72.083 0 0 1 -72 72zm16 16h16v16h-16z"/><path d="m416 8a8 8 0 0 0 -8 8v8a8 8 0 0 0 16 0v-8a8 8 0 0 0 -8-8z"/></g></g></svg>