<svg height="512" viewBox="0 0 512 512" width="512" xmlns="http://www.w3.org/2000/svg"><g><g><rect fill="#2d2d30" height="480" rx="20" width="224" x="144" y="16"/><circle cx="256" cy="128" fill="#d8d7da" r="80"/><circle cx="256" cy="128" fill="#cca400" r="16"/><g fill="#d8d7da"><circle cx="256" cy="80" r="8"/><circle cx="256" cy="176" r="8"/><circle cx="304" cy="128" r="8"/><circle cx="208" cy="128" r="8"/><rect height="48" rx="20" width="160" x="176" y="240"/></g><path d="m216 448h80v48h-80z" fill="#cca400"/></g><g><path d="m348 8h-184a28.031 28.031 0 0 0 -28 28v440a28.031 28.031 0 0 0 28 28h184a28.031 28.031 0 0 0 28-28v-440a28.031 28.031 0 0 0 -28-28zm-60 480h-64v-32h64zm72-12a12.01 12.01 0 0 1 -12 12h-44v-40a8 8 0 0 0 -8-8h-80a8 8 0 0 0 -8 8v40h-44a12.01 12.01 0 0 1 -12-12v-440a12.01 12.01 0 0 1 12-12h184a12.01 12.01 0 0 1 12 12z"/><path d="m256 40a88 88 0 1 0 88 88 88.1 88.1 0 0 0 -88-88zm0 160a72 72 0 1 1 72-72 72.081 72.081 0 0 1 -72 72z"/><path d="m256 104a24 24 0 1 0 24 24 24.027 24.027 0 0 0 -24-24zm0 32a8 8 0 1 1 8-8 8.009 8.009 0 0 1 -8 8z"/><circle cx="256" cy="80" r="8"/><circle cx="256" cy="176" r="8"/><circle cx="304" cy="128" r="8"/><circle cx="208" cy="128" r="8"/><path d="m316 232h-120a28.032 28.032 0 0 0 -28 28v8a28.032 28.032 0 0 0 28 28h120a28.032 28.032 0 0 0 28-28v-8a28.032 28.032 0 0 0 -28-28zm-132 36v-8a12.013 12.013 0 0 1 12-12h52v32h-52a12.013 12.013 0 0 1 -12-12zm144 0a12.013 12.013 0 0 1 -12 12h-52v-32h52a12.013 12.013 0 0 1 12 12z"/></g></g></svg>