<svg height="512" viewBox="0 0 512 512" width="512" xmlns="http://www.w3.org/2000/svg"><g><g><path d="m16 80h480v352h-480z" fill="#57565c"/><path d="m64 136v-32h408v304h-408v-32" fill="#d8d7da"/><path d="m71 456h-55v-24h64z" fill="#2d2d30"/><path d="m441 456h55v-24h-64z" fill="#2d2d30"/><path d="m288 160h144v32h-144z" fill="#83d8f4"/><path d="m40 136h48v80h-48z" fill="#cca400"/><path d="m40 296h48v80h-48z" fill="#cca400"/><g fill="#57565c"><path d="m288 272h32v32h-32z"/><path d="m344 272h32v32h-32z"/><path d="m400 272h32v32h-32z"/><path d="m288 216h32v32h-32z"/><path d="m344 216h32v32h-32z"/><path d="m400 216h32v32h-32z"/><path d="m288 328h32v32h-32z"/><path d="m344 328h32v32h-32z"/><path d="m400 328h32v32h-32z"/></g></g><g><path d="m496 72h-480a8 8 0 0 0 -8 8v376a8 8 0 0 0 8 8h55a8.005 8.005 0 0 0 7.49-5.19l7.05-18.81h340.92l7.05 18.81a8.005 8.005 0 0 0 7.49 5.19h55a8 8 0 0 0 8-8v-376a8 8 0 0 0 -8-8zm-430.54 376h-41.46v-8h44.46zm422.54 0h-41.46l-3-8h44.46zm0-24h-464v-336h464z"/><path d="m472 96h-408a8 8 0 0 0 -8 8v24h-16a8 8 0 0 0 -8 8v80a8 8 0 0 0 8 8h16v64h-16a8 8 0 0 0 -8 8v80a8 8 0 0 0 8 8h16v24a8 8 0 0 0 8 8h408a8 8 0 0 0 8-8v-304a8 8 0 0 0 -8-8zm-424 112v-64h32v64zm0 160v-64h32v64zm416 32h-392v-16h16a8 8 0 0 0 8-8v-80a8 8 0 0 0 -8-8h-16v-64h16a8 8 0 0 0 8-8v-80a8 8 0 0 0 -8-8h-16v-16h392z"/><path d="m288 200h144a8 8 0 0 0 8-8v-32a8 8 0 0 0 -8-8h-144a8 8 0 0 0 -8 8v32a8 8 0 0 0 8 8zm8-32h128v16h-128z"/><path d="m288 312h32a8 8 0 0 0 8-8v-32a8 8 0 0 0 -8-8h-32a8 8 0 0 0 -8 8v32a8 8 0 0 0 8 8zm8-32h16v16h-16z"/><path d="m376 264h-32a8 8 0 0 0 -8 8v32a8 8 0 0 0 8 8h32a8 8 0 0 0 8-8v-32a8 8 0 0 0 -8-8zm-8 32h-16v-16h16z"/><path d="m432 264h-32a8 8 0 0 0 -8 8v32a8 8 0 0 0 8 8h32a8 8 0 0 0 8-8v-32a8 8 0 0 0 -8-8zm-8 32h-16v-16h16z"/><path d="m288 256h32a8 8 0 0 0 8-8v-32a8 8 0 0 0 -8-8h-32a8 8 0 0 0 -8 8v32a8 8 0 0 0 8 8zm8-32h16v16h-16z"/><path d="m376 208h-32a8 8 0 0 0 -8 8v32a8 8 0 0 0 8 8h32a8 8 0 0 0 8-8v-32a8 8 0 0 0 -8-8zm-8 32h-16v-16h16z"/><path d="m432 208h-32a8 8 0 0 0 -8 8v32a8 8 0 0 0 8 8h32a8 8 0 0 0 8-8v-32a8 8 0 0 0 -8-8zm-8 32h-16v-16h16z"/><path d="m288 368h32a8 8 0 0 0 8-8v-32a8 8 0 0 0 -8-8h-32a8 8 0 0 0 -8 8v32a8 8 0 0 0 8 8zm8-32h16v16h-16z"/><path d="m376 320h-32a8 8 0 0 0 -8 8v32a8 8 0 0 0 8 8h32a8 8 0 0 0 8-8v-32a8 8 0 0 0 -8-8zm-8 32h-16v-16h16z"/><path d="m432 320h-32a8 8 0 0 0 -8 8v32a8 8 0 0 0 8 8h32a8 8 0 0 0 8-8v-32a8 8 0 0 0 -8-8zm-8 32h-16v-16h16z"/></g></g></svg>