<svg height="512" viewBox="0 0 512 512" width="512" xmlns="http://www.w3.org/2000/svg"><g><g><path d="m400 128v80h24v268a19.994 19.994 0 0 1 -20 20h-296a19.994 19.994 0 0 1 -20-20v-412l48-48h268a19.994 19.994 0 0 1 20 20v92z" fill="#57565c"/><g fill="#cca400"><path d="m88 128h24v80h-24z"/><path d="m400 152h24v32h-24z"/><path d="m128 408h256v32h-256z"/></g></g><g><path d="m424 136a8 8 0 0 0 8-8v-92a28.031 28.031 0 0 0 -28-28h-268a8.008 8.008 0 0 0 -5.66 2.34l-48 48a8.008 8.008 0 0 0 -2.34 5.66v412a28.031 28.031 0 0 0 28 28h296a28.031 28.031 0 0 0 28-28v-268a8 8 0 0 0 -8-8h-16v-8h16a8 8 0 0 0 8-8v-32a8 8 0 0 0 -8-8h-16v-8zm-328 0h8v64h-8zm320 24v16h-8v-16zm-16-40a8 8 0 0 0 -8 8v80a8 8 0 0 0 8 8h16v260a12.01 12.01 0 0 1 -12 12h-296a12.01 12.01 0 0 1 -12-12v-260h16a8 8 0 0 0 8-8v-80a8 8 0 0 0 -8-8h-16v-52.69l43.31-43.31h264.69a12.01 12.01 0 0 1 12 12v84z"/><path d="m384 400h-256a8 8 0 0 0 -8 8v32a8 8 0 0 0 8 8h256a8 8 0 0 0 8-8v-32a8 8 0 0 0 -8-8zm-8 32h-240v-16h240z"/><path d="m352 456h-192a8 8 0 0 0 0 16h192a8 8 0 0 0 0-16z"/><path d="m256 104a8 8 0 0 0 8-8v-48a8 8 0 0 0 -16 0v48a8 8 0 0 0 8 8z"/><path d="m224 104a8 8 0 0 0 8-8v-48a8 8 0 0 0 -16 0v48a8 8 0 0 0 8 8z"/><path d="m192 104a8 8 0 0 0 8-8v-48a8 8 0 0 0 -16 0v48a8 8 0 0 0 8 8z"/><path d="m160 104a8 8 0 0 0 8-8v-48a8 8 0 0 0 -16 0v48a8 8 0 0 0 8 8z"/><path d="m128 104a8 8 0 0 0 8-8v-24a8 8 0 0 0 -16 0v24a8 8 0 0 0 8 8z"/><path d="m352 104a8 8 0 0 0 8-8v-48a8 8 0 0 0 -16 0v48a8 8 0 0 0 8 8z"/><path d="m384 104a8 8 0 0 0 8-8v-48a8 8 0 0 0 -16 0v48a8 8 0 0 0 8 8z"/><path d="m320 104a8 8 0 0 0 8-8v-48a8 8 0 0 0 -16 0v48a8 8 0 0 0 8 8z"/><path d="m288 104a8 8 0 0 0 8-8v-48a8 8 0 0 0 -16 0v48a8 8 0 0 0 8 8z"/></g></g></svg>