<svg height="512" viewBox="0 0 512 512" width="512" xmlns="http://www.w3.org/2000/svg"><g><g><path d="m16 408h480v32h-480z" fill="#57565c"/><path d="m432 408h-160v-168h-112v40h-112v-56a80 80 0 0 1 80-80h224a80 80 0 0 1 80 80z" fill="#d8d7da"/><path d="m80 280h48v24h-48z" fill="#cca400"/><path d="m432 248h32v72h-32z" fill="#83d8f4"/><path d="m120 112h56v32h-56z" fill="#83d8f4"/><path d="m320 72a32 32 0 0 1 32 32v40a0 0 0 0 1 0 0h-64a0 0 0 0 1 0 0v-40a32 32 0 0 1 32-32z" fill="#cca400"/><path d="m224 112h32v32h-32z" fill="#83d8f4"/><path d="m360 248h40v128h-40z" fill="#cca400"/></g><g><path d="m496 400h-56v-72h24a8 8 0 0 0 8-8v-72a8 8 0 0 0 -8-8h-24v-16a88.106 88.106 0 0 0 -80-87.63v-32.37a40 40 0 0 0 -80 0v32h-16v-24a8 8 0 0 0 -8-8h-32a8 8 0 0 0 -8 8v24h-32v-24a8 8 0 0 0 -8-8h-56a8 8 0 0 0 -8 8v25.46a88.15 88.15 0 0 0 -72 86.54v56a8 8 0 0 0 8 8h24v16a8 8 0 0 0 8 8h16v24a8 8 0 0 0 16 0v-24h16a8 8 0 0 0 8-8v-16h24a8 8 0 0 0 8-8v-32h96v152h-248a8 8 0 0 0 -8 8v32a8 8 0 0 0 8 8h480a8 8 0 0 0 8-8v-32a8 8 0 0 0 -8-8zm-56-144h16v56h-16zm-144-152a24 24 0 0 1 48 0v32h-48zm-64 16h16v16h-16zm-104 0h40v16h-40zm-8 176h-32v-8h32zm40-64a8 8 0 0 0 -8 8v32h-96v-48a72.083 72.083 0 0 1 72-72h224a72.083 72.083 0 0 1 72 72v176h-144v-160a8 8 0 0 0 -8-8zm328 200h-464v-16h464z"/><path d="m360 384h40a8 8 0 0 0 8-8v-128a8 8 0 0 0 -8-8h-40a8 8 0 0 0 -8 8v128a8 8 0 0 0 8 8zm32-48h-24v-16h24zm0-32h-24v-16h24zm-24 64v-16h24v16zm24-112v16h-24v-16z"/></g></g></svg>