<svg height="512" viewBox="0 0 512 512" width="512" xmlns="http://www.w3.org/2000/svg"><g><g><rect fill="#57565c" height="480" rx="20" width="272" x="120" y="16"/><path d="m368 448h-224v-408h48l16 24h104l8-24h48z" fill="#83d8f4"/><circle cx="256" cy="472" fill="#d8d7da" r="8"/></g><g><path d="m372 8h-232a28.032 28.032 0 0 0 -28 28v440a28.032 28.032 0 0 0 28 28h232a28.032 28.032 0 0 0 28-28v-440a28.032 28.032 0 0 0 -28-28zm12 468a12.013 12.013 0 0 1 -12 12h-232a12.013 12.013 0 0 1 -12-12v-440a12.013 12.013 0 0 1 12-12h232a12.013 12.013 0 0 1 12 12z"/><path d="m368 32h-48a8 8 0 0 0 -7.59 5.47l-6.177 18.53h-93.952l-13.625-20.438a8 8 0 0 0 -6.656-3.562h-48a8 8 0 0 0 -8 8v408a8 8 0 0 0 8 8h224a8 8 0 0 0 8-8v-408a8 8 0 0 0 -8-8zm-8 408h-208v-392h35.719l13.625 20.438a8 8 0 0 0 6.656 3.562h104a8 8 0 0 0 7.59-5.47l6.177-18.53h34.233z"/><path d="m232 48h48a8 8 0 0 0 0-16h-48a8 8 0 0 0 0 16z"/><circle cx="256" cy="472" r="8"/></g></g></svg>