<svg height="512" viewBox="0 0 512 512" width="512" xmlns="http://www.w3.org/2000/svg"><g><g><rect fill="#d8d7da" height="240" rx="20" width="208" x="152" y="136"/><path d="m344 136h-176l16-32h143z" fill="#57565c"/><path d="m168 376h176l-16 32h-143z" fill="#57565c"/><g fill="#2d2d30"><path d="m192 16h128v88h-128z"/><path d="m192 408h128v88h-128z"/><path d="m360 176h24v72h-24z"/></g><path d="m176 160h160v192h-160z" fill="#83d8f4"/></g><g><path d="m384 168h-16v-12a28.038 28.038 0 0 0 -18.26-26.25l-15.68-29.5a7.956 7.956 0 0 0 -6.06-4.18v-80.07a8 8 0 0 0 -8-8h-128a8 8 0 0 0 -8 8v80a8.011 8.011 0 0 0 -7.16 4.42l-14.68 29.37a28.036 28.036 0 0 0 -18.16 26.21v200a28.038 28.038 0 0 0 18.26 26.25l15.68 29.5a7.956 7.956 0 0 0 6.06 4.18v80.07a8 8 0 0 0 8 8h128a8 8 0 0 0 8-8v-80a8.011 8.011 0 0 0 7.16-4.42l14.68-29.37a28.036 28.036 0 0 0 18.16-26.21v-100h16a8 8 0 0 0 8-8v-72a8 8 0 0 0 -8-8zm-184-144h112v72h-112zm-11.06 88h133.25l8.5 16h-149.75zm123.06 376h-112v-72h112zm11.06-88h-133.25l-8.5-16h149.75zm28.94-44a12.01 12.01 0 0 1 -12 12h-168a12.01 12.01 0 0 1 -12-12v-200a12.01 12.01 0 0 1 12-12h168a12.01 12.01 0 0 1 12 12zm24-116h-8v-56h8z"/><path d="m336 152h-160a8 8 0 0 0 -8 8v192a8 8 0 0 0 8 8h160a8 8 0 0 0 8-8v-192a8 8 0 0 0 -8-8zm-8 192h-144v-176h144z"/></g></g></svg>