<svg height="512" viewBox="0 0 512 512" width="512" xmlns="http://www.w3.org/2000/svg"><g><g><rect fill="#d8d7da" height="208" rx="20" width="480" x="16" y="240"/><g fill="#2d2d30"><circle cx="120" cy="344" r="80"/><circle cx="392" cy="344" r="80"/><path d="m192 192h-68a20 20 0 0 0 -20 20v28h304v-28a20 20 0 0 0 -20-20h-68"/></g><circle cx="120" cy="344" fill="#d8d7da" r="32"/><circle cx="392" cy="344" fill="#d8d7da" r="32"/><path d="m224 400h64v24h-64z" fill="#cca400"/><path d="m212 64h88a20 20 0 0 1 20 20v156a0 0 0 0 1 0 0h-128a0 0 0 0 1 0 0v-156a20 20 0 0 1 20-20z" fill="#57565c"/><path d="m216 88h80v40h-80z" fill="#83d8f4"/><circle cx="256" cy="184" fill="#d8d7da" r="32"/><circle cx="256" cy="184" fill="#d8d7da" r="8"/></g><g><path d="m476 232h-60v-20a28.031 28.031 0 0 0 -28-28h-60v-100a28.031 28.031 0 0 0 -28-28h-88a28.031 28.031 0 0 0 -28 28v100h-60a28.031 28.031 0 0 0 -28 28v20h-60a28.031 28.031 0 0 0 -28 28v168a28.031 28.031 0 0 0 28 28h440a28.031 28.031 0 0 0 28-28v-168a28.031 28.031 0 0 0 -28-28zm-148-32h60a12.01 12.01 0 0 1 12 12v20h-72zm-128-116a12.01 12.01 0 0 1 12-12h88a12.01 12.01 0 0 1 12 12v148h-112zm-88 128a12.01 12.01 0 0 1 12-12h60v32h-72zm376 216a12.01 12.01 0 0 1 -12 12h-440a12.01 12.01 0 0 1 -12-12v-168a12.01 12.01 0 0 1 12-12h440a12.01 12.01 0 0 1 12 12z"/><path d="m120 304a40 40 0 1 0 40 40 40.045 40.045 0 0 0 -40-40zm0 64a24 24 0 1 1 24-24 24.028 24.028 0 0 1 -24 24z"/><path d="m120 256a88 88 0 1 0 88 88 88.1 88.1 0 0 0 -88-88zm0 160a72 72 0 1 1 72-72 72.081 72.081 0 0 1 -72 72z"/><path d="m392 304a40 40 0 1 0 40 40 40.045 40.045 0 0 0 -40-40zm0 64a24 24 0 1 1 24-24 24.028 24.028 0 0 1 -24 24z"/><path d="m392 256a88 88 0 1 0 88 88 88.1 88.1 0 0 0 -88-88zm0 160a72 72 0 1 1 72-72 72.081 72.081 0 0 1 -72 72z"/><path d="m288 392h-64a8 8 0 0 0 -8 8v24a8 8 0 0 0 8 8h64a8 8 0 0 0 8-8v-24a8 8 0 0 0 -8-8zm-8 24h-48v-8h48z"/><path d="m216 136h80a8 8 0 0 0 8-8v-40a8 8 0 0 0 -8-8h-80a8 8 0 0 0 -8 8v40a8 8 0 0 0 8 8zm8-40h64v24h-64z"/><path d="m256 144a40 40 0 1 0 40 40 40.045 40.045 0 0 0 -40-40zm0 64a24 24 0 1 1 24-24 24.028 24.028 0 0 1 -24 24z"/><circle cx="256" cy="184" r="8"/></g></g></svg>