<svg height="512" viewBox="0 0 512 512" width="512" xmlns="http://www.w3.org/2000/svg"><g><g><rect fill="#57565c" height="480" rx="20" width="352" x="80" y="16"/><path d="m104 64h304v384h-304z" fill="#83d8f4"/><g fill="#cca400"><rect height="48" rx="8" width="48" x="232" y="368"/><rect height="48" rx="8" width="48" x="152" y="368"/><rect height="48" rx="8" width="48" x="312" y="368"/></g></g><g><path d="m412 8h-312a28.031 28.031 0 0 0 -28 28v440a28.031 28.031 0 0 0 28 28h312a28.031 28.031 0 0 0 28-28v-440a28.031 28.031 0 0 0 -28-28zm12 468a12.01 12.01 0 0 1 -12 12h-312a12.01 12.01 0 0 1 -12-12v-440a12.01 12.01 0 0 1 12-12h312a12.01 12.01 0 0 1 12 12z"/><path d="m224 48h64a8 8 0 0 0 0-16h-64a8 8 0 0 0 0 16z"/><path d="m408 56h-304a8 8 0 0 0 -8 8v384a8 8 0 0 0 8 8h304a8 8 0 0 0 8-8v-384a8 8 0 0 0 -8-8zm-8 384h-288v-368h288z"/><path d="m264 464h-16a8 8 0 0 0 0 16h16a8 8 0 0 0 0-16z"/><path d="m240 424h32a16.019 16.019 0 0 0 16-16v-32a16.019 16.019 0 0 0 -16-16h-32a16.019 16.019 0 0 0 -16 16v32a16.019 16.019 0 0 0 16 16zm0-48h32l.01 32h-32.01z"/><path d="m160 424h32a16.019 16.019 0 0 0 16-16v-32a16.019 16.019 0 0 0 -16-16h-32a16.019 16.019 0 0 0 -16 16v32a16.019 16.019 0 0 0 16 16zm0-48h32l.01 32h-32.01z"/><path d="m320 424h32a16.019 16.019 0 0 0 16-16v-32a16.019 16.019 0 0 0 -16-16h-32a16.019 16.019 0 0 0 -16 16v32a16.019 16.019 0 0 0 16 16zm0-48h32l.01 32h-32.01z"/></g></g></svg>