<svg height="512" viewBox="0 0 512 512" width="512" xmlns="http://www.w3.org/2000/svg"><g><g><path d="m280 336h224v96h-224z" fill="#57565c" transform="matrix(0 1 -1 0 776 -8)"/><path d="m112 16h144v96h-144z" fill="#d8d7da"/><path d="m208 40h24v48h-24z" fill="#cca400"/><path d="m136 40h24v48h-24z" fill="#cca400"/><path d="m72 112h224v384h-224z" fill="#57565c"/><g fill="#cca400"><path d="m136 384h96v112h-96z"/><path d="m372 364h96v40h-96z" transform="matrix(0 1 -1 0 804 -36)"/></g></g><g><path d="m232 32h-24a8 8 0 0 0 -8 8v48a8 8 0 0 0 8 8h24a8 8 0 0 0 8-8v-48a8 8 0 0 0 -8-8zm-8 48h-8v-32h8z"/><path d="m160 32h-24a8 8 0 0 0 -8 8v48a8 8 0 0 0 8 8h24a8 8 0 0 0 8-8v-48a8 8 0 0 0 -8-8zm-8 48h-8v-32h8z"/><path d="m296 104h-32v-88a8 8 0 0 0 -8-8h-144a8 8 0 0 0 -8 8v88h-32a8 8 0 0 0 -8 8v384a8 8 0 0 0 8 8h224a8 8 0 0 0 8-8v-384a8 8 0 0 0 -8-8zm-176-80h128v80h-128zm104 464h-80v-96h80zm64 0h-48v-104a8 8 0 0 0 -8-8h-96a8 8 0 0 0 -8 8v104h-48v-368h208z"/><path d="m440 264h-96a8 8 0 0 0 -8 8v224a8 8 0 0 0 8 8h96a8 8 0 0 0 8-8v-224a8 8 0 0 0 -8-8zm-8 160h-24v-80h24zm0-96h-32a8 8 0 0 0 -8 8v96a8 8 0 0 0 8 8h32v48h-80v-208h80z"/></g></g></svg>