<svg height="512" viewBox="0 0 512 512" width="512" xmlns="http://www.w3.org/2000/svg"><g><g><rect fill="#57565c" height="216" rx="20" width="64" x="224" y="256"/><path d="m240 472h32a0 0 0 0 1 0 0v12a12 12 0 0 1 -12 12h-8a12 12 0 0 1 -12-12v-12a0 0 0 0 1 0 0z" fill="#d8d7da"/><path d="m240 88h32v168h-32z" fill="#d8d7da"/><path d="m240 16h48v72h-48z" fill="#57565c"/><g fill="#cca400"><path d="m288 24h24v56h-24z"/><path d="m264 304h24v64h-24z"/></g></g><path d="m312 16h-16a8 8 0 0 0 -8-8h-48a8 8 0 0 0 -8 8v234.71a28.026 28.026 0 0 0 -16 25.29v176a28.026 28.026 0 0 0 16 25.29v6.71a20.02 20.02 0 0 0 20 20h8a20.02 20.02 0 0 0 20-20v-6.71a28.026 28.026 0 0 0 16-25.29v-176a28.026 28.026 0 0 0 -16-25.29v-154.71h8a8 8 0 0 0 8-8h16a8 8 0 0 0 8-8v-56a8 8 0 0 0 -8-8zm-64 80h16v152h-16zm16 388a4 4 0 0 1 -4 4h-8a4 4 0 0 1 -4-4v-4h16zm16-124h-8v-48h8zm0-64h-16a8 8 0 0 0 -8 8v64a8 8 0 0 0 8 8h16v76a12.01 12.01 0 0 1 -12 12h-24a12.01 12.01 0 0 1 -12-12v-176a12.01 12.01 0 0 1 12-12h24a12.01 12.01 0 0 1 12 12zm0-216h-32v-56h32zm24-8h-8v-40h8z"/></g></svg>