<svg height="512" viewBox="0 0 512 512" width="512" xmlns="http://www.w3.org/2000/svg"><g><g><path d="m144 192h224v304h-224z" fill="#57565c"/><path d="m168 160h48v32h-48z" fill="#d8d7da"/><path d="m192 16a16 16 0 0 1 16 16v128a0 0 0 0 1 0 0h-32a0 0 0 0 1 0 0v-128a16 16 0 0 1 16-16z" fill="#57565c"/><path d="m264 152h32v40h-32z" fill="#d8d7da"/><path d="m320 152h32v40h-32z" fill="#d8d7da"/><g fill="#cca400"><circle cx="256" cy="312" r="72"/><path d="m168 440h32v32h-32z"/><path d="m224 440h120v32h-120z"/></g></g><g><path d="m368 184h-8v-32a8 8 0 0 0 -8-8h-32a8 8 0 0 0 -8 8v32h-8v-32a8 8 0 0 0 -8-8h-32a8 8 0 0 0 -8 8v32h-32v-24a8 8 0 0 0 -8-8v-120a24 24 0 0 0 -48 0v120a8 8 0 0 0 -8 8v24h-16a8 8 0 0 0 -8 8v304a8 8 0 0 0 8 8h224a8 8 0 0 0 8-8v-304a8 8 0 0 0 -8-8zm-40-24h16v24h-16zm-56 0h16v24h-16zm-88-128a8 8 0 0 1 16 0v120h-16zm-8 136h32v16h-32zm184 320h-208v-288h208z"/><path d="m256 392a80 80 0 1 0 -80-80 80.091 80.091 0 0 0 80 80zm-59.313-104h118.626a63.426 63.426 0 0 1 4.169 16h-126.964a63.426 63.426 0 0 1 4.169-16zm122.8 32a63.426 63.426 0 0 1 -4.169 16h-118.631a63.426 63.426 0 0 1 -4.169-16zm-63.487 56a63.9 63.9 0 0 1 -49.907-24h99.814a63.9 63.9 0 0 1 -49.907 24zm0-128a63.9 63.9 0 0 1 49.907 24h-99.814a63.9 63.9 0 0 1 49.907-24z"/><path d="m200 432h-32a8 8 0 0 0 -8 8v32a8 8 0 0 0 8 8h32a8 8 0 0 0 8-8v-32a8 8 0 0 0 -8-8zm-8 32h-16v-16h16z"/><path d="m344 432h-120a8 8 0 0 0 -8 8v32a8 8 0 0 0 8 8h120a8 8 0 0 0 8-8v-32a8 8 0 0 0 -8-8zm-8 32h-104v-16h104z"/></g></g></svg>