<svg height="512" viewBox="0 0 512 512" width="512" xmlns="http://www.w3.org/2000/svg"><g><g><path d="m16 352h480v80h-480z" fill="#a0815c"/><path d="m56 288h400v32h-400z" fill="#57565c"/><path d="m56 80h400v208h-400z" fill="#83d8f4"/><g fill="#d8d7da"><path d="m40 432h24v32h-24z"/><path d="m448 432h24v32h-24z"/></g></g><g><path d="m496 344h-64v-16h24a8 8 0 0 0 8-8v-240a8 8 0 0 0 -8-8h-400a8 8 0 0 0 -8 8v240a8 8 0 0 0 8 8h24v16h-64a8 8 0 0 0 -8 8v80a8 8 0 0 0 8 8h16v24a8 8 0 0 0 8 8h24a8 8 0 0 0 8-8v-24h368v24a8 8 0 0 0 8 8h24a8 8 0 0 0 8-8v-24h16a8 8 0 0 0 8-8v-80a8 8 0 0 0 -8-8zm-432-256h384v192h-384zm0 224v-16h384v16zm352 16v16h-320v-16zm-360 128h-8v-16h8zm408 0h-8v-16h8zm24-32h-464v-64h464z"/><path d="m304 377h-96a8 8 0 0 0 -8 8v16a8 8 0 0 0 16 0v-8h80v8a8 8 0 0 0 16 0v-16a8 8 0 0 0 -8-8z"/></g></g></svg>