<svg height="512" viewBox="0 0 512 512" width="512" xmlns="http://www.w3.org/2000/svg"><g><g><path d="m448 24v72h-384v-72a8 8 0 0 1 8-8h368a8 8 0 0 1 8 8z" fill="#57565c"/><path d="m448 432v32a8 8 0 0 1 -8 8h-368a8 8 0 0 1 -8-8v-32z" fill="#57565c"/><path d="m64 96h384v336h-384z" fill="#d8d7da"/><g fill="#cca400"><circle cx="336" cy="56" r="16"/><circle cx="256" cy="56" r="16"/><circle cx="176" cy="56" r="16"/></g><path d="m96 160h320v224h-320z" fill="#83d8f4"/><path d="m128 328h256v32h-256z" fill="#2d2d30"/><path d="m80 472h80v24h-80z" fill="#2d2d30"/><path d="m352 472h80v24h-80z" fill="#2d2d30"/></g><g><path d="m440 8h-368a16.021 16.021 0 0 0 -16 16v440a16.021 16.021 0 0 0 16 16v16a8 8 0 0 0 8 8h80a8 8 0 0 0 8-8v-16h176v16a8 8 0 0 0 8 8h80a8 8 0 0 0 8-8v-16a16.021 16.021 0 0 0 16-16v-440a16.021 16.021 0 0 0 -16-16zm-368 16h368v64h-368zm80 464h-64v-8h64zm272 0h-64v-8h64zm16.01-24h-368.01v-24h368.01zm-368.01-40v-320h368l.01 320z"/><path d="m336 80a24 24 0 1 0 -24-24 24.027 24.027 0 0 0 24 24zm0-32a8 8 0 1 1 -8 8 8.009 8.009 0 0 1 8-8z"/><path d="m256 80a24 24 0 1 0 -24-24 24.027 24.027 0 0 0 24 24zm0-32a8 8 0 1 1 -8 8 8.009 8.009 0 0 1 8-8z"/><path d="m176 80a24 24 0 1 0 -24-24 24.027 24.027 0 0 0 24 24zm0-32a8 8 0 1 1 -8 8 8.009 8.009 0 0 1 8-8z"/><path d="m416 152h-320a8 8 0 0 0 -8 8v224a8 8 0 0 0 8 8h320a8 8 0 0 0 8-8v-224a8 8 0 0 0 -8-8zm-72 216v8h-80v-8zm-208-16v-16h240v16zm112 16v8h-80v-8zm160 8h-48v-8h24a8 8 0 0 0 8-8v-32a8 8 0 0 0 -8-8h-256a8 8 0 0 0 -8 8v32a8 8 0 0 0 8 8h24v8h-48v-208h304z"/></g></g></svg>