<svg height="512" viewBox="0 0 512 512" width="512" xmlns="http://www.w3.org/2000/svg"><g><g><path d="m312 16v80h-248v-72a8 8 0 0 1 8-8z" fill="#57565c"/><path d="m448 456v32a8 8 0 0 1 -8 8h-368a8 8 0 0 1 -8-8v-32z" fill="#57565c"/><path d="m448 24v72h-136v-80h128a8 8 0 0 1 8 8z" fill="#2d2d30"/><path d="m64 96h384v360h-384z" fill="#d8d7da"/><circle cx="408" cy="56" fill="#cca400" r="16"/><circle cx="352" cy="56" fill="#cca400" r="16"/><path d="m383.29 328a136 136 0 1 1 0-96" fill="#acabb1"/><circle cx="256" cy="280" fill="#83d8f4" r="88"/><path d="m368 232h48v96h-48z" fill="#cca400"/></g><g><path d="m440 8h-368a16.021 16.021 0 0 0 -16 16v464a16.021 16.021 0 0 0 16 16h368a16.021 16.021 0 0 0 16-16v-464a16.021 16.021 0 0 0 -16-16zm-120 16h120v64h-120zm-248 0h232v64h-232zm368.01 464h-368.01v-24h368.01zm-368.01-40v-344h368l.01 344z"/><path d="m408 80a24 24 0 1 0 -24-24 24.027 24.027 0 0 0 24 24zm0-32a8 8 0 1 1 -8 8 8.009 8.009 0 0 1 8-8z"/><path d="m352 80a24 24 0 1 0 -24-24 24.027 24.027 0 0 0 24 24zm0-32a8 8 0 1 1 -8 8 8.009 8.009 0 0 1 8-8z"/><path d="m256 184a96 96 0 1 0 96 96 96.108 96.108 0 0 0 -96-96zm0 176a80 80 0 1 1 80-80 80.091 80.091 0 0 1 -80 80z"/><path d="m416 224h-27.29a144.105 144.105 0 0 0 -132.71-88c-79.4 0-144 64.6-144 144s64.6 144 144 144a144.105 144.105 0 0 0 132.71-88h27.29a8 8 0 0 0 8-8v-96a8 8 0 0 0 -8-8zm-48 112h3.12a127.989 127.989 0 1 1 0-112h-3.12a8 8 0 0 0 -8 8v96a8 8 0 0 0 8 8zm40-16h-32v-80h32z"/></g></g></svg>