<svg height="512" viewBox="0 0 512 512" width="512" xmlns="http://www.w3.org/2000/svg"><g><g><circle cx="256" cy="232" fill="#898890" r="216"/><path d="m416 232a160 160 0 1 1 -160-160 159.4 159.4 0 0 1 160 160z" fill="#d8d7da"/><path d="m376 336q0 .93-.03 1.86a159.992 159.992 0 0 1 -239.94 0q-.03-.93-.03-1.86c0-61.86 53.73-112 120-112s120 50.14 120 112z" fill="#57565c"/><circle cx="256" cy="144" fill="#91cc04" r="16"/><path d="m208 288h96v48h-96z" fill="#cca400"/></g><g><path d="m414.39 73.61a224 224 0 1 0 -316.78 316.78 224 224 0 1 0 316.78-316.78zm-118.39 362.52v-12.13a8 8 0 0 0 -16 0v14.61q-7.92.915-16 1.22v-15.83a8 8 0 0 0 -16 0v15.83q-8.085-.3-16-1.22v-14.61a8 8 0 0 0 -16 0v12.13c-95.62-18.71-168-103.12-168-204.13 0-114.69 93.31-208 208-208s208 93.31 208 208c0 101.01-72.38 185.42-168 204.13z"/><path d="m256 64c-92.64 0-168 75.36-168 168a168 168 0 1 0 336 0c0-92.64-75.36-168-168-168zm111.43 271.37-.46.49a151.963 151.963 0 0 1 -221.97-.04c-.14-.14-.27-.28-.4-.42-.2-.21-.39-.43-.59-.65.72-56.77 50.69-102.75 111.99-102.75s111.27 45.98 111.99 102.75c-.19.21-.37.42-.56.62zm-111.43-119.37c-63.52 0-116.37 43.6-126.31 100.56a151.884 151.884 0 0 1 -25.69-84.56c0-83.81 68.19-152 152-152s152 68.19 152 152a151.884 151.884 0 0 1 -25.69 84.56c-9.94-56.96-62.79-100.56-126.31-100.56z"/><path d="m256 168a24 24 0 1 0 -24-24 24.027 24.027 0 0 0 24 24zm0-32a8 8 0 1 1 -8 8 8.009 8.009 0 0 1 8-8z"/><path d="m304 280h-96a8 8 0 0 0 -8 8v48a8 8 0 0 0 8 8h96a8 8 0 0 0 8-8v-48a8 8 0 0 0 -8-8zm-8 48h-80v-32h80z"/><path d="m296 152h16a8 8 0 0 0 0-16h-16a8 8 0 0 0 0 16z"/><path d="m200 152h16a8 8 0 0 0 0-16h-16a8 8 0 0 0 0 16z"/><path d="m256 464a8 8 0 0 0 -8 8v24a8 8 0 0 0 16 0v-24a8 8 0 0 0 -8-8z"/><path d="m224 464a8 8 0 0 0 -8 8 16.019 16.019 0 0 1 -16 16h-16a16.019 16.019 0 0 1 -16-16 8 8 0 0 0 -16 0 32.036 32.036 0 0 0 32 32h16a32.036 32.036 0 0 0 32-32 8 8 0 0 0 -8-8z"/><path d="m353 464a8 8 0 0 0 -8 8 16.019 16.019 0 0 1 -16 16h-16a16.019 16.019 0 0 1 -16-16 8 8 0 0 0 -16 0 32.036 32.036 0 0 0 32 32h16a32.036 32.036 0 0 0 32-32 8 8 0 0 0 -8-8z"/></g></g></svg>