<svg height="512" viewBox="0 0 512 512" width="512" xmlns="http://www.w3.org/2000/svg"><g><g><rect fill="#d8d7da" height="480" rx="20" width="240" x="136" y="16"/><circle cx="256" cy="208" fill="#2d2d30" r="64"/><circle cx="256" cy="208" fill="#787680" r="40"/><circle cx="320" cy="72" fill="#787680" r="32"/><circle cx="256" cy="392" fill="#2d2d30" r="80"/><circle cx="256" cy="392" fill="#787680" r="56"/><g fill="#d8d7da"><circle cx="160" cy="40" r="8"/><circle cx="160" cy="472" r="8"/><circle cx="352" cy="472" r="8"/><circle cx="320" cy="72" r="8"/></g></g><g><path d="m356 8h-200a28.032 28.032 0 0 0 -28 28v440a28.032 28.032 0 0 0 28 28h200a28.032 28.032 0 0 0 28-28v-440a28.032 28.032 0 0 0 -28-28zm12 468a12.013 12.013 0 0 1 -12 12h-200a12.013 12.013 0 0 1 -12-12v-440a12.013 12.013 0 0 1 12-12h200a12.013 12.013 0 0 1 12 12z"/><path d="m256 280a72 72 0 1 0 -72-72 72.081 72.081 0 0 0 72 72zm0-128a56 56 0 1 1 -56 56 56.063 56.063 0 0 1 56-56z"/><path d="m256 256a48 48 0 1 0 -48-48 48.053 48.053 0 0 0 48 48zm0-80a32 32 0 1 1 -32 32 32.036 32.036 0 0 1 32-32z"/><path d="m320 32a40 40 0 1 0 40 40 40.045 40.045 0 0 0 -40-40zm0 64a24 24 0 1 1 24-24 24.028 24.028 0 0 1 -24 24z"/><path d="m256 304a88 88 0 1 0 88 88 88.1 88.1 0 0 0 -88-88zm0 160a72 72 0 1 1 72-72 72.081 72.081 0 0 1 -72 72z"/><path d="m256 328a64 64 0 1 0 64 64 64.072 64.072 0 0 0 -64-64zm0 112a48 48 0 1 1 48-48 48.053 48.053 0 0 1 -48 48z"/><circle cx="160" cy="40" r="8"/><circle cx="160" cy="472" r="8"/><circle cx="352" cy="472" r="8"/><circle cx="320" cy="72" r="8"/></g></g></svg>