<svg height="512" viewBox="0 0 512 512" width="512" xmlns="http://www.w3.org/2000/svg"><g><g><path d="m144 16h224v160h-224z" fill="#d8d7da"/><path d="m144 200h224v272h-224z" fill="#d8d7da"/><g fill="#2d2d30"><path d="m152 176h208v24h-208z"/><path d="m152 472h32v24h-32z"/><path d="m328 472h32v24h-32z"/></g></g><g><path d="m376 176v-160a8 8 0 0 0 -8-8h-224a8 8 0 0 0 -8 8v160a8 8 0 0 0 8 8v8a8 8 0 0 0 -8 8v272a8 8 0 0 0 8 8v16a8 8 0 0 0 8 8h32a8 8 0 0 0 8-8v-16h128v16a8 8 0 0 0 8 8h32a8 8 0 0 0 8-8v-16a8 8 0 0 0 8-8v-272a8 8 0 0 0 -8-8v-8a8 8 0 0 0 8-8zm-200 312h-16v-8h16zm176 0h-16v-8h16zm8-24h-208v-256h208zm-200-272v-8h192v8zm200-24h-208v-144h208z"/><path d="m168 64a8 8 0 0 0 -8 8v48a8 8 0 0 0 16 0v-48a8 8 0 0 0 -8-8z"/><path d="m168 368a8 8 0 0 0 8-8v-48a8 8 0 0 0 -16 0v48a8 8 0 0 0 8 8z"/></g></g></svg>