<svg height="512" viewBox="0 0 512 512" width="512" xmlns="http://www.w3.org/2000/svg"><g><g><rect fill="#d8d7da" height="256" rx="20" width="480" x="16" y="80"/><path d="m56 272h400v32h-400z" fill="#57565c"/><path d="m56 80h104v40h-104z" fill="#cca400"/><g fill="#91cc04"><circle cx="440" cy="136" r="16"/><circle cx="376" cy="136" r="16"/></g></g><g><path d="m476 72h-440a28.031 28.031 0 0 0 -28 28v216a28.031 28.031 0 0 0 28 28h440a28.031 28.031 0 0 0 28-28v-216a28.031 28.031 0 0 0 -28-28zm-412 16h88v24h-88zm424 228a12.01 12.01 0 0 1 -12 12h-440a12.01 12.01 0 0 1 -12-12v-216a12.01 12.01 0 0 1 12-12h12v32a8 8 0 0 0 8 8h104a8 8 0 0 0 8-8v-32h308a12.01 12.01 0 0 1 12 12z"/><path d="m456 264h-400a8 8 0 0 0 -8 8v32a8 8 0 0 0 8 8h400a8 8 0 0 0 8-8v-32a8 8 0 0 0 -8-8zm-256 16h48v16h-48zm-16 16h-48v-16h48zm80-16h48v16h-48zm64 0h48v16h-48zm-264 0h56v16h-56zm384 16h-56v-16h56z"/><path d="m440 112a24 24 0 1 0 24 24 24.027 24.027 0 0 0 -24-24zm0 32a8 8 0 1 1 8-8 8.009 8.009 0 0 1 -8 8z"/><path d="m376 160a24 24 0 1 0 -24-24 24.027 24.027 0 0 0 24 24zm0-32a8 8 0 1 1 -8 8 8.009 8.009 0 0 1 8-8z"/><path d="m256 360a8 8 0 0 0 -8 8v64a8 8 0 0 0 16 0v-64a8 8 0 0 0 -8-8z"/><path d="m224 360a8 8 0 0 0 -8 8v64a8 8 0 0 0 16 0v-64a8 8 0 0 0 -8-8z"/><path d="m288 360a8 8 0 0 0 -8 8v32a8 8 0 0 0 16 0v-32a8 8 0 0 0 -8-8z"/><path d="m192 360a8 8 0 0 0 -8 8v24a32.036 32.036 0 0 1 -32 32h-8a8 8 0 0 0 0 16h8a48.055 48.055 0 0 0 48-48v-24a8 8 0 0 0 -8-8z"/><path d="m368 424h-8a32.036 32.036 0 0 1 -32-32v-24a8 8 0 0 0 -16 0v24a48.055 48.055 0 0 0 48 48h8a8 8 0 0 0 0-16z"/><path d="m288 416a8 8 0 0 0 -8 8v8a8 8 0 0 0 16 0v-8a8 8 0 0 0 -8-8z"/></g></g></svg>