<svg height="512" viewBox="0 0 512 512" width="512" xmlns="http://www.w3.org/2000/svg"><g><g><rect fill="#57565c" height="288" rx="8" width="480" x="16" y="104"/><path d="m48 136h320v224h-320z" fill="#83d8f4"/><path d="m336 200h32v96h-32z" fill="#cca400"/><circle cx="432" cy="167" fill="#d8d7da" r="32"/><path d="m400 224h64v136h-64z" fill="#d8d7da"/><g fill="#2d2d30"><path d="m48 392h32v24h-32z"/><path d="m432 392h32v24h-32z"/></g></g><g><path d="m488 96h-464a16.021 16.021 0 0 0 -16 16v272a16.021 16.021 0 0 0 16 16h16v16a8 8 0 0 0 8 8h32a8 8 0 0 0 8-8v-16h336v16a8 8 0 0 0 8 8h32a8 8 0 0 0 8-8v-16h16a16.021 16.021 0 0 0 16-16v-272a16.021 16.021 0 0 0 -16-16zm-416 312h-16v-8h16zm384 0h-16v-8h16zm32-24h-464v-272h464l.01 272z"/><path d="m368 128h-320a8 8 0 0 0 -8 8v224a8 8 0 0 0 8 8h320a8 8 0 0 0 8-8v-224a8 8 0 0 0 -8-8zm-8 160h-16v-80h16zm0-96h-24a8 8 0 0 0 -8 8v96a8 8 0 0 0 8 8h24v48h-304v-208h304z"/><path d="m432 127a40 40 0 1 0 40 40 40.045 40.045 0 0 0 -40-40zm0 64a24 24 0 0 1 -8-46.624v7.624a8 8 0 0 0 16 0v-7.624a24 24 0 0 1 -8 46.624z"/><path d="m464 216h-64a8 8 0 0 0 -8 8v136a8 8 0 0 0 8 8h64a8 8 0 0 0 8-8v-136a8 8 0 0 0 -8-8zm-8 136h-48v-120h48z"/></g></g></svg>