<svg xmlns="http://www.w3.org/2000/svg" width="959.104" height="173.165" viewBox="0 0 959.104 173.165">
  <g id="Group_10368" data-name="Group 10368" transform="translate(292)">
    <g id="Group_10367" data-name="Group 10367" transform="translate(0 19)">
      <path id="wave_4_" data-name="wave (4)" d="M0,149.194l17.783-14.187C35.5,120.554,71.267,92.58,106.567,88.784c35.5-3.53,71.267,17.783,106.567,10.657,35.5-6.86,71.267-42.827,106.567-46.157,35.5-3.33,71.267,24.644,106.567,31.97,35.5,7.326,71.267-7.326,106.567,10.657,35.5,17.983,71.267,67.271,106.567,56.814,35.5-10.857,71.267-81.457,106.567-99.44,35.5-17.983,71.267,17.983,106.567,35.5,35.5,17.783,71.267,17.783,88.584,17.783H959.1V0H0Z" transform="translate(-292)" fill="#7ed8c0"/>
      <path id="wave_4_2" data-name="wave (4)" d="M0,81.775,9.747,74c9.711-7.922,29.315-23.255,48.664-25.336,19.458-1.935,39.062,9.747,58.411,5.841,19.458-3.76,39.062-23.474,58.411-25.3,19.458-1.825,39.062,13.508,58.411,17.523,19.458,4.016,39.062-4.016,58.411,5.841,19.458,9.857,39.062,36.872,58.411,31.14,19.458-5.951,39.062-44.648,58.411-54.5,19.458-9.857,39.062,9.857,58.411,19.458,19.458,9.747,39.062,9.747,48.554,9.747H525.7V0H0Z" transform="translate(-112 27)" fill="#1ed5a5"/>
      <path id="wave_4_3" data-name="wave (4)" d="M0,81.775,9.747,74c9.711-7.922,29.315-23.255,48.664-25.336,19.458-1.935,39.062,9.747,58.411,5.841,19.458-3.76,39.062-23.474,58.411-25.3,19.458-1.825,39.062,13.508,58.411,17.523,19.458,4.016,39.062-4.016,58.411,5.841,19.458,9.857,39.062,36.872,58.411,31.14,19.458-5.951,39.062-44.648,58.411-54.5,19.458-9.857,39.062,9.857,58.411,19.458,19.458,9.747,39.062,9.747,48.554,9.747H525.7V0H0Z" transform="translate(-13)" fill="#33bf9a"/>
    </g>
    <rect id="Rectangle_2462" data-name="Rectangle 2462" width="375" height="28" fill="#33bf9a"/>
  </g>
</svg>
